<svg width="34" height="34" fill="none" xmlns="http://www.w3.org/2000/svg"><g clip-path="url(#a)"><path d="M29.427 9.024H12.803c-.403 0-.79.164-1.075.456a1.574 1.574 0 0 0-.445 1.1v17.005c0 .413.16.808.445 1.1.285.292.672.456 1.075.456h11.5l4.627 3.897V29.14h.483a1.5 1.5 0 0 0 1.075-.456c.285-.292.446-.687.446-1.1V10.58c0-.41-.159-.804-.441-1.096a1.504 1.504 0 0 0-1.067-.46Z" fill="#fff"/><path d="M12.988 9.024h16.509c.384 0 .753.157 1.025.435.272.278.425.656.425 1.05v4.809c0 .015-.006.03-.017.04a.055.055 0 0 1-.039.017H11.34a.055.055 0 0 1-.04-.017.057.057 0 0 1-.016-.04v-4.553a1.766 1.766 0 0 1 .496-1.234 1.659 1.659 0 0 1 1.208-.506Z" fill="#FF725E"/><path d="M19.765 18.371v6.84h-1.547v-5.569h-1.336v-1.27h2.883Zm6.405 0v1.026l-2.489 5.814H21.99l2.398-5.55H22.18v1.121h-1.375v-2.41h5.366Zm-2.308-5.749c0 .034-1.35.064-3.016.064-1.665 0-3.019-.024-3.019-.064s1.351-.064 3.019-.064c1.668 0 3.016.034 3.016.064Z" fill="#263238"/><path d="M29.427 9.025h.104a1.502 1.502 0 0 1 .832.311c.159.123.292.277.393.453.148.259.222.555.213.855V27.49c.007.204-.02.408-.08.603a1.595 1.595 0 0 1-1.334 1.098h-.612l.056-.057v4.024l-.097-.082-4.636-3.885.039.015h-11.52a1.556 1.556 0 0 1-.766-.214 1.643 1.643 0 0 1-.764-1.062 2.658 2.658 0 0 1-.034-.532V11.142a6.012 6.012 0 0 1 .03-.859 1.63 1.63 0 0 1 .371-.766c.186-.212.422-.37.687-.458.26-.072.53-.099.798-.079h4.428l8.701.022h3.19-3.19l-8.701.02h-4.416a2.246 2.246 0 0 0-.764.074 1.496 1.496 0 0 0-.989 1.145 5.97 5.97 0 0 0-.024.838v16.306c-.006.166.005.331.031.495.034.164.095.32.18.465.17.29.434.512.746.628.325.093.665.125 1 .094h11.023l.017.014 4.623 3.9-.096.044v-3.951h.662c.288-.022.563-.131.791-.313a1.5 1.5 0 0 0 .49-.708 1.66 1.66 0 0 0 .078-.569v-6.083c0-2.72 0-5.106.012-7.075V11.7c0-.766.096-1.441-.199-1.896a1.507 1.507 0 0 0-.899-.72 2.08 2.08 0 0 0-.374-.06Z" fill="#263238"/><path d="M24.049 7.054h-.042a.626.626 0 0 0-.618.633v3.276c0 .35.277.633.618.633h.041a.626.626 0 0 0 .62-.633V7.687a.626.626 0 0 0-.62-.633Z" fill="#E0E0E0"/><path d="M24.05 11.596a.776.776 0 0 0 .363-.153.61.61 0 0 0 .213-.398V7.726a.585.585 0 0 0-.168-.438.559.559 0 0 0-.431-.163.546.546 0 0 0-.421.196.602.602 0 0 0-.135.447v3.02a1.67 1.67 0 0 0 0 .296.616.616 0 0 0 .241.384.789.789 0 0 0 .375.128.257.257 0 0 1-.106 0 .59.59 0 0 1-.295-.096.67.67 0 0 1-.283-.41 1.649 1.649 0 0 1-.017-.312v-.341c0-.495 0-1.059-.014-1.69V7.76a.735.735 0 0 1 .164-.532.683.683 0 0 1 .515-.247.679.679 0 0 1 .527.205.724.724 0 0 1 .142.534v.99c0 .627 0 1.198-.014 1.686 0 .247 0 .452-.017.652a.65.65 0 0 1-.254.428.565.565 0 0 1-.285.116.249.249 0 0 1-.1.005Z" fill="#263238"/><path d="M18.047 7.054h-.04a.626.626 0 0 0-.62.633v3.276c0 .35.277.633.62.633h.04a.626.626 0 0 0 .619-.633V7.687a.626.626 0 0 0-.619-.633Z" fill="#E0E0E0"/><path d="M18.047 11.596a.772.772 0 0 0 .365-.153.61.61 0 0 0 .213-.398v-.643c0-.495 0-1.058-.015-1.686v-.99a.586.586 0 0 0-.168-.438.56.56 0 0 0-.431-.162.54.54 0 0 0-.421.195.605.605 0 0 0-.138.448v.989c0 .63 0 1.201-.014 1.689v.34a1.67 1.67 0 0 0 0 .297.605.605 0 0 0 .241.384c.112.074.24.118.373.128h-.107a.583.583 0 0 1-.292-.096.66.66 0 0 1-.283-.41 1.877 1.877 0 0 1-.02-.312V7.759a.753.753 0 0 1 .167-.532.679.679 0 0 1 .515-.247.67.67 0 0 1 .525.205.712.712 0 0 1 .198.524v2.676c0 .247 0 .452-.017.652a.661.661 0 0 1-.242.428.574.574 0 0 1-.285.117.26.26 0 0 1-.164.014Z" fill="#263238"/><path opacity=".3" d="M16.654 9.215c.08.805.006 1.619-.221 2.395a6.21 6.21 0 0 1-1.101 2.125 6.056 6.056 0 0 1-1.813 1.532 5.925 5.925 0 0 1-2.248.706l.242-3.38 2.995-3.331 2.146-.047Z" fill="#000"/><path d="M11.913 14.57c3.019-.78 4.849-3.914 4.088-7.002-.761-3.088-3.825-4.96-6.844-4.182C6.14 4.165 4.31 7.3 5.07 10.387c.76 3.089 3.825 4.96 6.843 4.182Z" fill="#fff"/><path d="M10.53 15.364a6.142 6.142 0 0 1-3.375-1.016 6.348 6.348 0 0 1-2.302-2.723 6.52 6.52 0 0 1-.497-3.564A6.455 6.455 0 0 1 5.82 4.788a6.23 6.23 0 0 1 2.963-1.942 6.108 6.108 0 0 1 3.519.005 6.23 6.23 0 0 1 2.957 1.951 6.455 6.455 0 0 1 1.456 3.277 6.505 6.505 0 0 1-1.193 4.732 6.225 6.225 0 0 1-4.11 2.489 5.95 5.95 0 0 1-.882.064Zm.015-11.53A4.979 4.979 0 0 0 7.176 5.15a5.165 5.165 0 0 0-1.512 2.552 5.256 5.256 0 0 0 .129 2.983c.33.959.93 1.797 1.726 2.407a4.939 4.939 0 0 0 5.577.312 5.101 5.101 0 0 0 1.971-2.201 5.25 5.25 0 0 0 .445-2.95 5.178 5.178 0 0 0-1.678-3.157 4.962 4.962 0 0 0-3.289-1.262Z" fill="#455A64"/><path d="M10.545 3.834a.29.29 0 0 1 .082 0h.242c.308.014.614.059.913.133.475.12.93.311 1.351.566a5.136 5.136 0 0 1 2.4 3.495c.037.217.063.437.078.657.006.113.006.226 0 .34v.343a5.735 5.735 0 0 1-.29 1.394 5.82 5.82 0 0 1-.708 1.316 5.624 5.624 0 0 1-1.08 1.1 5.011 5.011 0 0 1-3.014 1.002 5.012 5.012 0 0 1-3.008-1.016 5.567 5.567 0 0 1-1.08-1.103 5.772 5.772 0 0 1-.687-1.323 5.708 5.708 0 0 1-.285-1.392 5.293 5.293 0 0 1 .575-2.777 5.144 5.144 0 0 1 1.915-2.053 4.87 4.87 0 0 1 1.88-.65l.39-.022.241-.013a.408.408 0 0 1 .082 0h-.082l-.242.022-.386.035a4.984 4.984 0 0 0-3.263 1.978 5.145 5.145 0 0 0-1.001 3.455c.037.464.132.922.283 1.362.168.458.395.892.674 1.289.302.406.658.768 1.056 1.075a4.9 4.9 0 0 0 2.935.99 4.899 4.899 0 0 0 2.939-.975 5.44 5.44 0 0 0 1.059-1.073 5.63 5.63 0 0 0 .679-1.286c.154-.438.252-.896.29-1.36.014-.111 0-.225 0-.336.006-.11.006-.221 0-.332-.022-.22-.032-.435-.073-.645a5.136 5.136 0 0 0-.918-2.149A5.072 5.072 0 0 0 11.753 4a5.243 5.243 0 0 0-.904-.158c-.193-.002-.304-.002-.304-.007Z" fill="#263238"/><path d="M10.53 15.364h.102l.295-.022c.13-.013.29-.027.483-.057l.646-.136c.579-.16 1.135-.4 1.653-.71a6.479 6.479 0 0 0 1.757-1.62 6.503 6.503 0 0 0 1.148-2.67c.028-.13.047-.263.058-.396 0-.133.03-.267.041-.405.012-.139 0-.272 0-.413v-.208l-.019-.21a6.325 6.325 0 0 0-2.609-4.71 6.102 6.102 0 0 0-3.54-1.15A6.082 6.082 0 0 0 6.99 3.792a6.304 6.304 0 0 0-2.27 3.02 6.382 6.382 0 0 0-.259 3.336 6.5 6.5 0 0 0 .443 1.459c.098.218.208.431.328.638l.18.3.2.274a6.235 6.235 0 0 0 1.75 1.612 6.383 6.383 0 0 0 1.653.71c.211.058.426.103.643.133.16.03.321.048.483.057l.298.022a.637.637 0 0 1 .101 0h-.399a3.28 3.28 0 0 1-.483-.047 4.226 4.226 0 0 1-.648-.123 6.302 6.302 0 0 1-1.677-.695 6.332 6.332 0 0 1-1.801-1.62l-.203-.277-.184-.302a6.994 6.994 0 0 1-.338-.657 6.626 6.626 0 0 1-.455-1.484 6.511 6.511 0 0 1 .257-3.388 6.425 6.425 0 0 1 2.31-3.075 6.199 6.199 0 0 1 7.236.01A6.433 6.433 0 0 1 16.81 8.51l.017.212v.633c0 .139-.039.272-.039.408-.01.136-.03.27-.06.403a6.492 6.492 0 0 1-2.987 4.33 6.74 6.74 0 0 1-1.678.697l-.653.124c-.16.024-.321.038-.483.045h-.297l-.1.002Z" fill="#263238"/><path d="m13.396 1.03-.515.845 3.312 2.113.515-.845-3.312-2.113Z" fill="#455A64"/><path d="M16.186 4.012s.044-.09.128-.247l.356-.624.012.052c-.75-.462-1.96-1.204-3.316-2.082l.087-.02-.017.028-.051.079-.065.109-.13.212-.243.416-.026-.09c.926.6 1.735 1.133 2.32 1.524l.691.462c.162.112.242.173.242.18a1.36 1.36 0 0 1-.242-.138l-.69-.422a183.22 183.22 0 0 1-2.391-1.497l-.054-.034.034-.052.242-.418.14-.203.066-.106.033-.054.017-.038v-.014L13.431 1c1.358.868 2.557 1.647 3.292 2.134l.031.022-.02.032c-.173.27-.31.48-.403.619-.041.073-.09.141-.145.205Z" fill="#263238"/><path d="M5.434 2.418 2.727 5.57l.73.657 2.707-3.153-.73-.656Z" fill="#455A64"/><path d="M3.458 6.225s.072-.099.203-.262l.558-.68c.484-.571 1.136-1.36 1.895-2.25v.089l-.725-.656h.09l-.025.018-.026.037-.051.06-.104.12-.205.248-.397.452-.742.853-1.175 1.34V5.54l.518.495c.066.06.13.124.188.193a1.434 1.434 0 0 1-.208-.156c-.128-.107-.319-.265-.558-.475l-.029-.025.024-.03L3.835 4.18l.725-.863.416-.462c.065-.08.135-.159.203-.248l.104-.12.05-.063.027-.03.015-.014h.089c.242.227.483.447.725.658l.046.042-.041.047c-.766.895-1.458 1.681-1.95 2.235l-.578.645a2.29 2.29 0 0 1-.208.218Z" fill="#263238"/><path d="m8.077 9.482.48-.937 1.72.796 1.849-3.445.865.507-2.396 4.345-2.518-1.266Z" fill="#455A64"/><path d="M10.598 10.755 8.07 9.485l.483-.943 1.714.791 1.856-3.444.87.51-2.395 4.356ZM8.087 9.48l2.509 1.261 2.39-4.335-.856-.494-1.851 3.437-1.709-.794-.483.925Zm-.909 6.617a1.397 1.397 0 0 1-.264-.114 3.062 3.062 0 0 1-.295-.16 4.228 4.228 0 0 1-.377-.248 6.688 6.688 0 0 1-.901-.742 7.59 7.59 0 0 1-.924-1.095 7.21 7.21 0 0 1-1.051-2.369 4.564 4.564 0 0 1-.09-.445 2.726 2.726 0 0 1-.045-.34 1.472 1.472 0 0 1-.015-.291c.024 0 .063.41.242 1.05.102.376.232.742.389 1.096a8.5 8.5 0 0 0 .691 1.237c.266.387.564.75.89 1.085.273.269.564.517.872.742.522.393.89.581.878.594Zm-2.852-1.319a2.37 2.37 0 0 1-.404-.477 8.178 8.178 0 0 1-1.281-2.732 2.317 2.317 0 0 1-.114-.619c.077.194.143.392.196.594.15.477.33.944.542 1.397.214.451.456.888.725 1.308.124.168.236.345.336.53Z" fill="#263238"/><path d="M29.427 9.024H12.803c-.403 0-.79.164-1.075.456a1.574 1.574 0 0 0-.445 1.1v17.005c0 .413.16.808.445 1.1.285.292.672.456 1.075.456h11.5l4.627 3.897V29.14h.483a1.5 1.5 0 0 0 1.075-.456c.285-.292.446-.687.446-1.1V10.58c0-.41-.159-.804-.441-1.096a1.504 1.504 0 0 0-1.067-.46Z" fill="#fff"/><path d="M12.988 9.024h16.509c.384 0 .753.157 1.025.435.272.278.425.656.425 1.05v4.809c0 .015-.006.03-.017.04a.055.055 0 0 1-.039.017H11.34a.055.055 0 0 1-.04-.017.057.057 0 0 1-.016-.04v-4.553a1.766 1.766 0 0 1 .496-1.234 1.659 1.659 0 0 1 1.208-.506Z" fill="#FF725E"/><path d="M19.765 18.371v6.84h-1.547v-5.569h-1.336v-1.27h2.883Zm6.405 0v1.026l-2.489 5.814H21.99l2.398-5.55H22.18v1.121h-1.375v-2.41h5.366Zm-2.308-5.749c0 .034-1.35.064-3.016.064-1.665 0-3.019-.024-3.019-.064s1.351-.064 3.019-.064c1.668 0 3.016.034 3.016.064Z" fill="#263238"/><path d="M29.427 9.025h.104a1.502 1.502 0 0 1 .832.311c.159.123.292.277.393.453.148.259.222.555.213.855V27.49c.007.204-.02.408-.08.603a1.595 1.595 0 0 1-1.334 1.098h-.612l.056-.057v4.024l-.097-.082-4.636-3.885.039.015h-11.52a1.556 1.556 0 0 1-.766-.214 1.643 1.643 0 0 1-.764-1.062 2.658 2.658 0 0 1-.034-.532V11.142a6.012 6.012 0 0 1 .03-.859 1.63 1.63 0 0 1 .371-.766c.186-.212.422-.37.687-.458.26-.072.53-.099.798-.079h4.428l8.701.022h3.19-3.19l-8.701.02h-4.416a2.246 2.246 0 0 0-.764.074 1.496 1.496 0 0 0-.989 1.145 5.97 5.97 0 0 0-.024.838v16.306c-.006.166.005.331.031.495.034.164.095.32.18.465.17.29.434.512.746.628.325.093.665.125 1 .094h11.023l.017.014 4.623 3.9-.096.044v-3.951h.662c.288-.022.563-.131.791-.313a1.5 1.5 0 0 0 .49-.708 1.66 1.66 0 0 0 .078-.569v-6.083c0-2.72 0-5.106.012-7.075V11.7c0-.766.096-1.441-.199-1.896a1.507 1.507 0 0 0-.899-.72 2.08 2.08 0 0 0-.374-.06Z" fill="#263238"/><path d="M24.049 7.054h-.042a.626.626 0 0 0-.618.633v3.276c0 .35.277.633.618.633h.041a.626.626 0 0 0 .62-.633V7.687a.626.626 0 0 0-.62-.633Z" fill="#E0E0E0"/><path d="M24.05 11.596a.776.776 0 0 0 .363-.153.61.61 0 0 0 .213-.398V7.726a.585.585 0 0 0-.168-.438.559.559 0 0 0-.431-.163.546.546 0 0 0-.421.196.602.602 0 0 0-.135.447v3.02a1.67 1.67 0 0 0 0 .296.616.616 0 0 0 .241.384.789.789 0 0 0 .375.128.257.257 0 0 1-.106 0 .59.59 0 0 1-.295-.096.67.67 0 0 1-.283-.41 1.649 1.649 0 0 1-.017-.312v-.341c0-.495 0-1.059-.014-1.69V7.76a.735.735 0 0 1 .164-.532.683.683 0 0 1 .515-.247.679.679 0 0 1 .527.205.724.724 0 0 1 .142.534v.99c0 .627 0 1.198-.014 1.686 0 .247 0 .452-.017.652a.65.65 0 0 1-.254.428.565.565 0 0 1-.285.116.249.249 0 0 1-.1.005Z" fill="#263238"/><path d="M18.047 7.054h-.04a.626.626 0 0 0-.62.633v3.276c0 .35.277.633.62.633h.04a.626.626 0 0 0 .619-.633V7.687a.626.626 0 0 0-.619-.633Z" fill="#E0E0E0"/><path d="M18.047 11.596a.772.772 0 0 0 .365-.153.61.61 0 0 0 .213-.398v-.643c0-.495 0-1.058-.015-1.686v-.99a.586.586 0 0 0-.168-.438.56.56 0 0 0-.431-.162.54.54 0 0 0-.421.195.605.605 0 0 0-.138.448v.989c0 .63 0 1.201-.014 1.689v.34a1.67 1.67 0 0 0 0 .297.605.605 0 0 0 .241.384c.112.074.24.118.373.128h-.107a.583.583 0 0 1-.292-.096.66.66 0 0 1-.283-.41 1.877 1.877 0 0 1-.02-.312V7.759a.753.753 0 0 1 .167-.532.679.679 0 0 1 .515-.247.67.67 0 0 1 .525.205.712.712 0 0 1 .198.524v2.676c0 .247 0 .452-.017.652a.661.661 0 0 1-.242.428.574.574 0 0 1-.285.117.26.26 0 0 1-.164.014Z" fill="#263238"/><path opacity=".3" d="M16.654 9.215c.08.805.006 1.619-.221 2.395a6.21 6.21 0 0 1-1.101 2.125 6.056 6.056 0 0 1-1.813 1.532 5.925 5.925 0 0 1-2.248.706l.242-3.38 2.995-3.331 2.146-.047Z" fill="#000"/><path d="M11.913 14.57c3.019-.78 4.849-3.914 4.088-7.002-.761-3.088-3.825-4.96-6.844-4.182C6.14 4.165 4.31 7.3 5.07 10.387c.76 3.089 3.825 4.96 6.843 4.182Z" fill="#fff"/><path d="M10.53 15.364a6.142 6.142 0 0 1-3.375-1.016 6.348 6.348 0 0 1-2.302-2.723 6.52 6.52 0 0 1-.497-3.564A6.455 6.455 0 0 1 5.82 4.788a6.23 6.23 0 0 1 2.963-1.942 6.108 6.108 0 0 1 3.519.005 6.23 6.23 0 0 1 2.957 1.951 6.455 6.455 0 0 1 1.456 3.277 6.505 6.505 0 0 1-1.193 4.732 6.225 6.225 0 0 1-4.11 2.489 5.95 5.95 0 0 1-.882.064Zm.015-11.53A4.979 4.979 0 0 0 7.176 5.15a5.165 5.165 0 0 0-1.512 2.552 5.256 5.256 0 0 0 .129 2.983c.33.959.93 1.797 1.726 2.407a4.939 4.939 0 0 0 5.577.312 5.101 5.101 0 0 0 1.971-2.201 5.25 5.25 0 0 0 .445-2.95 5.178 5.178 0 0 0-1.678-3.157 4.962 4.962 0 0 0-3.289-1.262Z" fill="#455A64"/><path d="M10.545 3.834a.29.29 0 0 1 .082 0h.242c.308.014.614.059.913.133.475.12.93.311 1.351.566a5.136 5.136 0 0 1 2.4 3.495c.037.217.063.437.078.657.006.113.006.226 0 .34v.343a5.735 5.735 0 0 1-.29 1.394 5.82 5.82 0 0 1-.708 1.316 5.624 5.624 0 0 1-1.08 1.1 5.011 5.011 0 0 1-3.014 1.002 5.012 5.012 0 0 1-3.008-1.016 5.567 5.567 0 0 1-1.08-1.103 5.772 5.772 0 0 1-.687-1.323 5.708 5.708 0 0 1-.285-1.392 5.293 5.293 0 0 1 .575-2.777 5.144 5.144 0 0 1 1.915-2.053 4.87 4.87 0 0 1 1.88-.65l.39-.022.241-.013a.408.408 0 0 1 .082 0h-.082l-.242.022-.386.035a4.984 4.984 0 0 0-3.263 1.978 5.145 5.145 0 0 0-1.001 3.455c.037.464.132.922.283 1.362.168.458.395.892.674 1.289.302.406.658.768 1.056 1.075a4.9 4.9 0 0 0 2.935.99 4.899 4.899 0 0 0 2.939-.975 5.44 5.44 0 0 0 1.059-1.073 5.63 5.63 0 0 0 .679-1.286c.154-.438.252-.896.29-1.36.014-.111 0-.225 0-.336.006-.11.006-.221 0-.332-.022-.22-.032-.435-.073-.645a5.136 5.136 0 0 0-.918-2.149A5.072 5.072 0 0 0 11.753 4a5.243 5.243 0 0 0-.904-.158c-.193-.002-.304-.002-.304-.007Z" fill="#263238"/><path d="M10.53 15.364h.102l.295-.022c.13-.013.29-.027.483-.057l.646-.136c.579-.16 1.135-.4 1.653-.71a6.479 6.479 0 0 0 1.757-1.62 6.503 6.503 0 0 0 1.148-2.67c.028-.13.047-.263.058-.396 0-.133.03-.267.041-.405.012-.139 0-.272 0-.413v-.208l-.019-.21a6.325 6.325 0 0 0-2.609-4.71 6.102 6.102 0 0 0-3.54-1.15A6.082 6.082 0 0 0 6.99 3.792a6.304 6.304 0 0 0-2.27 3.02 6.382 6.382 0 0 0-.259 3.336 6.5 6.5 0 0 0 .443 1.459c.098.218.208.431.328.638l.18.3.2.274a6.235 6.235 0 0 0 1.75 1.612 6.383 6.383 0 0 0 1.653.71c.211.058.426.103.643.133.16.03.321.048.483.057l.298.022a.637.637 0 0 1 .101 0h-.399a3.28 3.28 0 0 1-.483-.047 4.226 4.226 0 0 1-.648-.123 6.302 6.302 0 0 1-1.677-.695 6.332 6.332 0 0 1-1.801-1.62l-.203-.277-.184-.302a6.994 6.994 0 0 1-.338-.657 6.626 6.626 0 0 1-.455-1.484 6.511 6.511 0 0 1 .257-3.388 6.425 6.425 0 0 1 2.31-3.075 6.199 6.199 0 0 1 7.236.01A6.433 6.433 0 0 1 16.81 8.51l.017.212v.633c0 .139-.039.272-.039.408-.01.136-.03.27-.06.403a6.492 6.492 0 0 1-2.987 4.33 6.74 6.74 0 0 1-1.678.697l-.653.124c-.16.024-.321.038-.483.045h-.297l-.1.002Z" fill="#263238"/><path d="m13.396 1.03-.515.845 3.312 2.113.515-.845-3.312-2.113Z" fill="#455A64"/><path d="M16.186 4.012s.044-.09.128-.247l.356-.624.012.052c-.75-.462-1.96-1.204-3.316-2.082l.087-.02-.017.028-.051.079-.065.109-.13.212-.243.416-.026-.09c.926.6 1.735 1.133 2.32 1.524l.691.462c.162.112.242.173.242.18a1.36 1.36 0 0 1-.242-.138l-.69-.422a183.22 183.22 0 0 1-2.391-1.497l-.054-.034.034-.052.242-.418.14-.203.066-.106.033-.054.017-.038v-.014L13.431 1c1.358.868 2.557 1.647 3.292 2.134l.031.022-.02.032c-.173.27-.31.48-.403.619-.041.073-.09.141-.145.205Z" fill="#263238"/><path d="M5.434 2.418 2.727 5.57l.73.657 2.707-3.153-.73-.656Z" fill="#455A64"/><path d="M3.458 6.225s.072-.099.203-.262l.558-.68c.484-.571 1.136-1.36 1.895-2.25v.089l-.725-.656h.09l-.025.018-.026.037-.051.06-.104.12-.205.248-.397.452-.742.853-1.175 1.34V5.54l.518.495c.066.06.13.124.188.193a1.434 1.434 0 0 1-.208-.156c-.128-.107-.319-.265-.558-.475l-.029-.025.024-.03L3.835 4.18l.725-.863.416-.462c.065-.08.135-.159.203-.248l.104-.12.05-.063.027-.03.015-.014h.089c.242.227.483.447.725.658l.046.042-.041.047c-.766.895-1.458 1.681-1.95 2.235l-.578.645a2.29 2.29 0 0 1-.208.218Z" fill="#263238"/><path d="m8.077 9.482.48-.937 1.72.796 1.849-3.445.865.507-2.396 4.345-2.518-1.266Z" fill="#455A64"/><path d="M10.598 10.755 8.07 9.485l.483-.943 1.714.791 1.856-3.444.87.51-2.395 4.356ZM8.087 9.48l2.509 1.261 2.39-4.335-.856-.494-1.851 3.437-1.709-.794-.483.925Zm-.909 6.617a1.397 1.397 0 0 1-.264-.114 3.062 3.062 0 0 1-.295-.16 4.228 4.228 0 0 1-.377-.248 6.688 6.688 0 0 1-.901-.742 7.59 7.59 0 0 1-.924-1.095 7.21 7.21 0 0 1-1.051-2.369 4.564 4.564 0 0 1-.09-.445 2.726 2.726 0 0 1-.045-.34 1.472 1.472 0 0 1-.015-.291c.024 0 .063.41.242 1.05.102.376.232.742.389 1.096a8.5 8.5 0 0 0 .691 1.237c.266.387.564.75.89 1.085.273.269.564.517.872.742.522.393.89.581.878.594Zm-2.852-1.319a2.37 2.37 0 0 1-.404-.477 8.178 8.178 0 0 1-1.281-2.732 2.317 2.317 0 0 1-.114-.619c.077.194.143.392.196.594.15.477.33.944.542 1.397.214.451.456.888.725 1.308.124.168.236.345.336.53Z" fill="#263238"/></g><defs><clipPath id="a"><path fill="#fff" transform="translate(2 1)" d="M0 0h29v32.164H0z"/></clipPath></defs></svg>