<svg width="375" height="406" fill="none" xmlns="http://www.w3.org/2000/svg"><path d="M363.923 203.558c-4.867-9.149-11.473-17.575-19.585-24.798-26.19-23.112-60.956-32.26-93.868-39.001-11.821-2.408-23.409-11.195-18.426-25.038 3.708-9.991 8.691-18.418 5.794-29.733-10.777-41.53-68.953-29.251-92.941-11.556-10.894 8.065-20.396 19.14-33.26 23.834-16.803 6.14-36.388 2.047-53.887 4.575-18.774 2.768-36.041 12.519-47.282 28.408C-2.28 148.426.27 173.705 12.09 191.52c18.89 28.288 48.557 51.28 73.936 72.948 30.247 25.88 63.738 55.252 100.242 70.54 35.114 14.685 77.181 18.417 112.758 3.37 32.101-13.602 59.103-39.724 70.112-74.512 6.837-20.825 4.288-42.132-5.215-60.308Z" fill="#fff"/><path d="m149.903 119.434-19.952 6.379s-6.071 23.429-4.176 27.605c1.895 4.175 12.567 7.345 17.632 4.832 5.065-2.513 22.233-18.944 22.233-18.944l-15.737-19.872Z" fill="#FFEDE5"/><path d="M168.192 96.817s-12.76 14.46-18.289 22.617l14.229 22.231 14.887-13.377s-2.475-36.999-10.827-31.47Z" fill="#543753"/><path d="M147.622 120.169v22.269l6.418-16.547-4.137-6.457-2.281.735Z" fill="#E0855C"/><path d="M146.655 107.256c1.74.425 2.281-.773 3.712 1.508s4.447 11.212 3.635 12.565c-.812 1.353-9.822 10.052-10.479 10.052s-2.32-2.436-1.972-3.286c0 0-2.127 1.275-3.519 1.043 0 0-3.093 1.624-4.33 1.315-1.238-.309-8.468-10.98-6.767-13.802 1.701-2.822 2.784-1.353 3.789-2.475 1.006-1.121 2.707-2.976 4.756-2.783 2.05.193 2.978-2.977 5.955-2.513 2.977.464 1.353-2.59 5.22-1.624Z" fill="#FFEDE5"/><path d="M141.512 128.481a.407.407 0 0 1-.348-.193c-.116-.194-.038-.425.155-.503.039 0 3.519-1.856 4.447-3.209l.077-.077c.039 0 2.011-1.778 2.668-3.132l-3.364-7.616c-.077-.193 0-.425.193-.502.194-.078.426 0 .503.193l3.48 7.925-.077.155c-.58 1.469-2.591 3.286-2.9 3.557-1.083 1.508-4.563 3.325-4.718 3.402 0-.039-.038 0-.116 0Zm-3.518 1.044c-.155 0-.271-.077-.348-.232l-4.292-8.737c-.078-.194 0-.426.193-.503.193-.077.425 0 .503.193l4.292 8.738c.077.193 0 .425-.194.502-.038.039-.077.039-.154.039Z" fill="#472938"/><path d="M143.794 127.128c-.155 0-.271-.077-.348-.232l-4.022-8.66c-.077-.193 0-.425.194-.503.193-.077.425 0 .502.194l4.022 8.66c.077.193 0 .425-.194.502-.038.039-.116.039-.154.039Z" fill="#472938"/><path d="M143.484 131.767c-.618 0-1.314-.966-1.585-1.353-.193-.27-.619-.966-.773-1.662-.735.348-2.011.889-3.055.812-.619.309-3.248 1.585-4.485 1.275-.696-.154-1.972-1.855-2.668-2.86-.116-.194-.078-.426.077-.542a.415.415 0 0 1 .541.078c1.199 1.739 2.011 2.474 2.204 2.551.812.194 2.9-.696 4.06-1.276l.116-.038h.116c1.276.193 3.248-1.005 3.287-1.005l1.005-.58-.425 1.082c-.039.116-.039.503.348 1.237.464.851 1.005 1.392 1.237 1.508.967-.541 7.27-6.495 9.512-8.892-2.088.503-4.098-.387-4.176-.425-.193-.078-.27-.31-.193-.503.077-.193.309-.27.503-.193.038 0 2.552 1.121 4.678 0 .271-.155.464-.078.542.038.116.078.193.271.116.464-.271.696-10.054 10.284-10.982 10.284Z" fill="#472938"/><path d="m211.924 73.582 19.372 12.178v25.246s-20.145 41.909-19.372 57.026l-46.129 8.621s-11.059-44.383 2.397-79.874l20.571-14.46 23.161-8.737Z" fill="#AB8DA8"/><path d="M161.542 141.007a.387.387 0 0 1-.387-.386c-.155-10.709.696-20.684 2.591-29.731a.4.4 0 0 1 .464-.309.401.401 0 0 1 .309.464c-1.856 8.969-2.745 18.905-2.552 29.537-.038.232-.193.425-.425.425Z" fill="#472938"/><path d="m231.296 111.045-15.118-2.281 8.468 17.127 6.65-14.846Z" fill="#543753"/><path d="m206.898 58.079 5.026 15.503a38.395 38.395 0 0 0-14.152 9.55c-6.612 7.036-9.164 13.686-13.146 13.686-3.983 0 4.176-14.46 4.176-14.46l-1.044-13.531 19.14-10.748Z" fill="#FFEDE5"/><path d="M188.26 75.709s8.855-1.315 13.379-14.035l-13.92 7.153.541 6.882Z" fill="#E0855C"/><path d="M181.687 26.415s-8.545 41.677-4.099 44.538c4.447 2.861 22.002.387 28.536-11.212 6.535-11.598-1.662-33.326-24.437-33.326Z" fill="#FFEDE5"/><path d="M178.942 41.223s-8.043 10.4-7.231 11.405c.812 1.005 5.22 2.435 5.22 2.435l2.011-13.84Z" fill="#FFEDE5"/><path d="M203.07 53.44s-4.022-2.01-1.431-10.787c0 0-5.22-9.24-8.623-10.748-3.402-1.508-12.064-1.972-12.064-1.972s-1.74-12.178 1.16-13.454c2.9-1.275 29.735-.54 34.8 8.931 1.702 3.21.619 5.142.619 5.142s2.861 3.789 2.359 7.037c-.503 3.247-8.391 15.27-8.391 15.27l-8.429.58Z" fill="#3B2645"/><path d="M211.095 56.609c2.688-2.688 3.447-6.286 1.695-8.037-1.751-1.752-5.35-.993-8.038 1.694-2.688 2.688-3.447 6.286-1.695 8.038 1.752 1.751 5.35.992 8.038-1.695Z" fill="#FFEDE5"/><path d="M180.991 61.752a12.95 12.95 0 0 1-3.557-.541.386.386 0 0 1-.232-.503.386.386 0 0 1 .502-.232c.039 0 5.298 1.701 7.115-1.083.116-.193.348-.232.541-.116.194.116.232.348.116.542-1.044 1.508-2.822 1.933-4.485 1.933Zm24.128-6.534c-.116 0-.271-.077-.309-.193-.116-.194-.078-.426.116-.542l3.132-1.971c.193-.116.425-.078.541.116.116.193.078.425-.116.54l-3.132 1.973a.549.549 0 0 1-.232.077Z" fill="#472938"/><path d="M184.278 41.261c.812.194 1.314 1.005 1.121 1.779l-.232 1.044c-.193.811-1.005 1.314-1.779 1.12-.812-.193-1.314-1.005-1.121-1.778l.232-1.044c.193-.811.967-1.314 1.779-1.12Zm-1.624-4.059s5.104-.348 6.418 3.827c0 0-.154-4.368-3.364-5.026-3.209-.657-4.253 1.005-3.054 1.199Z" fill="#3B2645"/><path d="M218.807 77.912c-17.361-2.938-5.839 33.674-5.839 33.674l25.984 7.848 9.628-29.575c-15.118-6.65-29.773-11.947-29.773-11.947Z" fill="#AB8DA8"/><path d="M243.012 164.436s-9.164 3.209-10.053 4.639c-.889 1.431-.039 6.496-.039 6.496-.966 1.546-1.74 3.17-2.281 4.91-.773 2.59 1.16 1.817 3.441 4.446 2.282 2.629 4.138 1.971 5.452 3.17 1.315 1.198 3.983.812 5.027 1.314 1.044.503 3.016 2.204 4.215 2.127 1.199-.078 4.021-4.176 6.341-9.318 2.32-5.142 1.895-9.317 2.939-15.503s25.443-45.968 22.581-56.755c-1.43-5.374-16.974-13.415-32.093-20.103l-9.628 29.575 13.765 4.176-9.667 40.826Z" fill="#FFEDE5"/><path d="M256.816 125.079h-.116l-4.137-1.121c-.193-.039-.348-.271-.271-.464.039-.193.271-.309.464-.271l4.138 1.121c.193.039.348.271.27.464 0 .155-.154.271-.348.271Z" fill="#472938"/><path d="m288.252 263.602 15.042-7.539s-.348-2.938 2.668-6.263c3.016-3.325.773-11.018-2.05-12.255-2.822-1.238-4.214-.387-6.65-4.369l-21.77 9.433 12.76 20.993Z" fill="#FFEDE5"/><path d="M303.874 237.545c2.822 1.237 5.026 8.93 2.049 12.255-2.977 3.325-2.668 6.263-2.668 6.263 12.876 1.74 24.979 20.607 27.26 22.733 2.281 2.127 11.523.619 11.793-.966.271-1.585-19.797-54.513-21.653-55.673-1.856-1.159-23.432 11.019-23.432 11.019 2.436 3.982 3.828 3.131 6.651 4.369Z" fill="#AB8DA8"/><path d="M342.308 277.83c.232-1.585-19.797-54.513-21.653-55.673-.464-.309-2.165.232-4.408 1.199 5.336 10.593 18.947 47.089 22.311 56.136 2.01-.386 3.634-1.005 3.75-1.662Z" fill="#E5E5E5"/><path d="M172.291 207.698s34.491 90.467 49.029 91.666c14.539 1.198 73.544-38.429 73.544-38.429l-10.981-21.999-49.841 16.431-12.412-56.793-49.339 9.124Z" fill="#3B2645"/><path opacity=".5" d="m221.63 198.613-49.339 9.085s8.855 23.197 19.449 46.239l33.988-36.38-4.098-18.944Z" fill="#3B2645"/><path d="m81.656 338.18-6.65 15.426s2.165 2.049 2.01 6.495c-.154 4.446 6.496 8.931 9.474 8.041 2.977-.889 3.48-2.435 7.927-.927l10.594-21.264-23.355-7.771Z" fill="#FFEDE5"/><path d="M79.336 343.554s9.126 9.549 21.074 11.56l4.562-9.163-23.316-7.81-2.32 5.413Z" fill="#E0855C"/><path d="M211.924 168.07s20.184 23.39 9.667 41.948c-10.517 18.557-73.196 52.656-77.449 63.134-4.254 10.477-6.651 22.578-15.351 37.114-8.7 14.537-22.581 40.17-22.581 40.17s-20.996-.812-27.84-9.898c0 0 33.872-85.712 41.953-96.808 8.081-11.095 46.207-58.107 46.207-58.107l-.774-8.931 46.168-8.622Z" fill="#3B2645"/><path d="M96.659 347.381h-.077c-.078-.038-.155-.154-.078-.27.387-.812 37.7-80.3 45.163-89.578 2.745-3.441 10.827-11.521 20.145-20.878 15.97-16.005 35.806-35.916 38.474-42.024 4.176-9.511 1.392-22.888 1.353-23.042-.039-.116.039-.194.155-.232.116-.039.193.038.232.154.038.116 2.822 13.648-1.392 23.274-2.707 6.147-22.582 26.097-38.551 42.141-9.319 9.356-17.361 17.398-20.107 20.839-7.424 9.24-44.737 88.689-45.085 89.5-.077.078-.155.116-.232.116Z" fill="#fff"/><path d="M91.362 346.183h-.078c-.077-.039-.154-.155-.077-.271.387-.812 39.092-82.696 43.577-89.578 2.282-3.518 15.892-17.9 29.039-31.78 12.992-13.724 26.448-27.952 29.039-31.74 5.181-7.578 4.098-19.872 4.098-19.988 0-.116.078-.194.194-.194s.193.078.193.194 1.121 12.565-4.176 20.258c-2.629 3.828-16.085 18.055-29.077 31.818-13.147 13.88-26.719 28.262-29 31.741-4.447 6.882-43.19 88.728-43.578 89.54 0-.039-.077 0-.154 0Z" fill="#fff"/><path d="M86.451 368.181c-2.939.851-9.628-3.595-9.473-8.041.154-4.447-2.01-6.496-2.01-6.496-10.982 6.96-32.365.31-35.497.155-3.132-.155-9.241 6.959-8.39 8.312.85 1.353 50.227 28.958 52.431 28.687 2.204-.271 10.827-23.506 10.827-23.506-4.408-1.547-4.91.039-7.888.889Z" fill="#AB8DA8"/><path d="M31.12 362.111c.811 1.353 50.227 28.958 52.431 28.687.541-.077 1.508-1.547 2.59-3.75-10.903-4.678-44.853-23.854-53.205-28.61-1.314 1.547-2.165 3.093-1.817 3.673Z" fill="#E5E5E5"/><path opacity=".5" d="M166.53 185.623s22.929-2.861 22.697-2.784c-.232.077-23.007-1.005-23.007-1.005l.31 3.789Z" fill="#3B2645"/></svg>