<svg width="375" height="406" fill="none" xmlns="http://www.w3.org/2000/svg"><path d="M69.598 85.114c33.651-10.383 68.619 7.166 102.416 0C215.906 75.755 206.982 14.19 248.972 6c90.857 2.486 108.414 130.151 98.612 198.298-2.487 16.817-7.608 30.417-21.654 41.239-43.453 33.049-100.953 13.307-149.381 30.125-21.653 7.604-34.236 23.397-39.21 45.333-5.56 24.422-5.706 53.523-27.506 70.048-34.822 26.322-72.862-10.383-80.323-45.334-15.217-40.069 11.558-73.265 28.676-106.899 28.237-51.476-68.619-128.982 11.412-153.696Z" fill="#fff"/><path d="M206.559 9.313c-1.082-5.212-6.675-9.493-11.727-9.307-9.923.372-15.877 9.866-23.815 14.892-8.299 5.212-16.058 10.051-25.8 12.099-8.299 1.861-16.779 1.861-25.078-.372-11.006-2.979-20.388-9.68-31.934-10.238-10.645-.373-20.027 11.727-16.418 22.337 10.283 30.714 55.027 36.857 81.729 29.411 12.99-3.723 27.243-10.983 36.625-21.034 8.841-9.121 19.124-24.2 16.418-37.788Z" fill="#fff"/><path d="M163.708 87.791S166.175 71 185.075 71c18.9 0 28.067 21.48 32.333 34.081 4.267 12.601 15.267 24.471 29.6 31.487 14.334 7.015 25.167 14.563 23.334 30.456 0 0 30.666 23.94-27.767 28.362-58.433 4.422-87.133-32.252-83.6-51.138 3.533-18.885-19.267-44.487 4.733-56.457Z" fill="#3B2645"/><path d="M199.075 128.089s-2.667 25.802 8.667 28.063c0 0 4.7 46.316-21.734 46.316-26.433 0-23.733-44.92-23.733-44.92s11.267-2.959 10.367-27.863c-.9-24.904 26.8-18.919 26.433-1.596Z" fill="#FFEDE5"/><path d="M191.208 130.383c2.234-8.478-9.266-10.207-17-10.44-1.1 2.494-1.733 5.719-1.6 9.742.167 3.525 0 7.082-.433 10.607 4.4.332 16.333.299 19.033-9.909Zm-21.783-7.912c2.385-.818 3.077-5.085 1.544-9.53-1.532-4.446-4.707-7.387-7.092-6.569-2.386.818-3.077 5.085-1.545 9.53 1.532 4.446 4.708 7.387 7.093 6.569Zm39.7-6.608c1.532-4.446.84-8.713-1.545-9.531-2.385-.818-5.56 2.123-7.093 6.569-1.532 4.446-.84 8.713 1.545 9.53 2.385.818 5.561-2.123 7.093-6.568Z" fill="#E0855C"/><path d="M165.142 91.947s-1.834 44.521 19.3 44.621c16.433.066 21.133-19.917 21.4-42.426.266-22.51-40.434-19.485-40.7-2.195Z" fill="#FFEDE5"/><path d="M186.108 123.534c-3.533 0-6.633-2.128-6.666-2.161-.167-.1-.2-.299-.067-.466.1-.166.3-.199.467-.066.066.033 6.066 4.123 10.5.632.133-.1.366-.1.466.066.1.166.1.366-.066.466-1.5 1.13-3.1 1.529-4.634 1.529Zm-13.733-18.42s2.767 1.762 7.433.332c0-.033-3.966 4.024-7.433-.332Zm26.533.366s-2.766 1.762-7.433.332c0 0 3.967 4.057 7.433-.332Zm-28.133-5.786s3.5-3.857 8.6-2.66c2.6.599 1.6-2.593-3.1-2.394-4.7.2-5.5 5.054-5.5 5.054Zm30 0s-3.5-3.857-8.6-2.66c-2.6.599-1.6-2.593 3.1-2.394 4.7.2 5.5 5.054 5.5 5.054Zm-15.467 16.392c-1 0-3.133-.731-3.866-1.463-.267-.266-.367-.532-.334-.798.067-.399.367-1.662.8-3.258.567-2.294 1.3-5.121 1.534-6.517.233-1.33 0-2.727-.634-3.924-.1-.166-.033-.365.134-.465.166-.1.366-.033.466.133.7 1.33.967 2.859.7 4.356-.233 1.429-.966 4.289-1.533 6.583-.4 1.53-.733 2.86-.767 3.192 0 .033.034.1.134.233.7.698 2.9 1.363 3.533 1.263.833-.133 2.567-.931 3.167-1.629a.356.356 0 0 1 .466-.033.354.354 0 0 1 .034.465c-.734.798-2.6 1.696-3.567 1.829-.133.033-.2.033-.267.033Z" fill="#472938"/><path d="M165.442 103.352s1.333-10.607 4.633-14.497c0 0 5.533-2.46 14.333 2.76s14.967 9.609 23.134 8.312c0 0 .766-25.303-20.334-23.94-21.1 1.364-25.433 12.37-21.766 27.365Z" fill="#3B2645"/><path d="M304.875 259.69c-.333-.532-1.333.366-1.333.366s-1.034-1.164-3.834-.332c-2.8.831-11.1 7.946-11.1 7.946-3.733-.066-9.833 3.591-9.833 3.591s-4.6-1.895-8.767-8.146c-4.166-6.251-8.7-9.31-8.7-9.31s-9.766-39.168-16.366-63.606c-6.7 2.826-15.4 13.965-21.6 22.942.133 4.223.266 6.916.266 6.916s21.734 57.522 24.534 59.251c2.8 1.729 34.766 5.585 35.1 5.353.333-.233 3.266.532 4.466 0 1.2-.532 2.667.332 4.134-.665 1.466-.998 4 .532 5.033-.433 1.033-.964 2.833-.565 4.033-1.13 1.2-.565 7.9-10.008 8.034-11.704.133-1.696-3.734-10.507-4.067-11.039Z" fill="#FFEDE5"/><path d="M228.942 201.67s11.366 19.351 2.366 38.403l-7.733-20.082 5.367-18.321Z" fill="#E0855C"/><path d="M244.908 190.133c-2.366-8.778-4.333-15.661-5.3-18.155-3.666-9.575-10.433-10.008-10.433-10.008-6.667.1-6.333 35.743-5.867 51.105 6.2-8.978 14.9-20.083 21.6-22.942Z" fill="#AB8DA8"/><path d="M253.908 255.833c-.133 0-.266-.099-.333-.232-.033-.167.067-.366.233-.399l6.534-1.729c.166-.034.366.066.4.232.033.167-.067.366-.234.399l-6.533 1.729h-.067Zm32.334 22.643a.334.334 0 0 1-.334-.332c-.166-4.057-4.966-4.223-5.166-4.223a.334.334 0 0 1-.334-.332c0-.2.167-.333.334-.333.066 0 5.6.2 5.8 4.855.066.199-.1.365-.3.365.033 0 .033 0 0 0Z" fill="#472938"/><path d="M284.775 281.502c-.033 0-.1 0-.133-.033-.167-.067-.234-.266-.167-.432.4-.865 4-8.645 5.5-9.643 1.233-.831 2.733-.565 3.333-.033.4.332.267.665.234.765-.167.365-2.1 5.153-3.067 7.614-.067.166-.267.266-.433.199-.167-.066-.267-.266-.2-.432.1-.299 2.7-6.75 3.066-7.581-.066-.066-.233-.199-.566-.266a2.55 2.55 0 0 0-2 .333c-1.134.764-4.2 7.015-5.3 9.376-.034.067-.134.133-.267.133Z" fill="#472938"/><path d="M295.308 279.008c-.2 0-.333-.133-.333-.332 0-.067 0-.067.933-3.358.767-2.694 2-7.082 2.134-7.781-.2-.199-1.134-.598-1.767-.399-.5.167-2.033 2.427-3.167 4.422-.1.167-.3.2-.466.133-.167-.099-.2-.299-.134-.465.6-1.031 2.6-4.422 3.534-4.755.8-.266 1.833.1 2.3.433.233.166.366.365.366.532 0 .199-.466 1.895-2.166 8.013-.434 1.562-.867 3.059-.9 3.225a.334.334 0 0 1-.334.332Z" fill="#472938"/><path d="M300.008 278.31h-.066a.365.365 0 0 1-.267-.399c1.167-5.187 2.867-13.1 2.9-13.965-.133-.199-.733-.532-1.767-.532-.566 0-2 1.896-2.966 3.658-.1.166-.3.232-.467.133-.167-.1-.233-.3-.133-.466.533-.931 2.333-3.99 3.566-3.99 1.167 0 2.134.399 2.4.965.067.133.234.498-2.9 14.33 0 .166-.133.266-.3.266Z" fill="#472938"/><path d="M302.508 263.747c-.133 0-.266-.1-.333-.233-.533-1.696 1.033-3.591 1.1-3.657.133-.133.333-.167.467-.034.133.133.166.333.033.466 0 .033-1.4 1.696-.967 3.059.067.166-.033.366-.233.432 0-.033-.033-.033-.067-.033Zm-1.766 11.338a.251.251 0 0 1-.167-.067c-.167-.099-.2-.299-.1-.465l2.733-4.123-.8-4.987c-.033-.167.1-.366.267-.366.167-.033.367.1.367.266l.866 5.253-2.866 4.356c-.1.066-.2.133-.3.133Z" fill="#472938"/><path d="M69.575 265.243c.3-.532 1.333.299 1.333.299s1-1.197 3.834-.465c2.833.731 11.4 7.481 11.4 7.481 3.7-.2 10 3.192 10 3.192s4.533-2.095 8.466-8.512c3.934-6.417 8.334-9.676 8.334-9.676s8.166-39.5 13.8-64.237c6.8 2.56 15.933 13.333 22.5 22.044.033 4.223.033 6.916.033 6.916s-19.4 58.319-22.133 60.181c-2.734 1.862-34.534 6.949-34.834 6.75-.3-.2-3.233.665-4.466.166-1.234-.499-2.634.466-4.167-.499-1.533-.964-3.967.665-5.067-.232-1.1-.898-2.833-.466-4.1-.965-1.266-.498-8.3-9.675-8.5-11.371-.2-1.696 3.267-10.54 3.567-11.072Z" fill="#FFEDE5"/><path d="M143.142 204.264s-10.567 19.816-.834 38.469l6.9-20.382-6.066-18.087Z" fill="#E0855C"/><path d="M126.708 193.358c2-8.845 3.7-15.794 4.567-18.354 3.267-9.709 10.033-10.44 10.033-10.44 6.667-.166 7.734 35.477 7.9 50.838-6.566-8.678-15.7-19.451-22.5-22.044Z" fill="#AB8DA8"/><path d="M120.342 259.358h-.067l-6.6-1.463a.365.365 0 0 1-.267-.399.367.367 0 0 1 .4-.266l6.6 1.463c.167.033.3.233.267.399-.033.166-.2.266-.333.266Zm-31.434 23.906a.333.333 0 0 1-.333-.332c.033-4.688 5.533-5.087 5.6-5.087a.39.39 0 0 1 .367.299.363.363 0 0 1-.3.366c-.2 0-4.967.365-4.967 4.422-.033.199-.167.332-.367.332Z" fill="#472938"/><path d="M90.542 286.223a.35.35 0 0 1-.3-.166c-1.167-2.294-4.5-8.445-5.667-9.177-.9-.532-1.767-.332-2.033-.266-.3.1-.467.233-.534.3.4.831 3.234 7.181 3.367 7.481.067.166 0 .365-.167.432-.166.066-.366 0-.433-.166-1.1-2.428-3.2-7.149-3.367-7.515-.133-.232-.033-.532.2-.764.567-.532 2.067-.865 3.334-.1 1.566.931 5.466 8.578 5.9 9.443.066.166.033.365-.134.432-.066.066-.133.066-.166.066Z" fill="#472938"/><path d="M79.875 284.129c-.167 0-.3-.1-.333-.266-.034-.167-.467-1.496-.967-3.059-2-6.151-2.533-7.88-2.533-8.08 0-.199.1-.366.333-.532.467-.366 1.467-.765 2.3-.532.967.266 3.1 3.591 3.733 4.589.1.166.034.365-.1.465a.36.36 0 0 1-.466-.1c-1.234-1.961-2.867-4.156-3.334-4.289-.666-.199-1.566.266-1.766.466.166.598 1.6 5.12 2.5 7.847 1 3.092 1 3.092 1 3.158 0 .166-.167.333-.367.333.033 0 .033 0 0 0Z" fill="#472938"/><path d="M75.175 283.663c-.133 0-.267-.1-.333-.233-3.667-13.732-3.5-14.097-3.467-14.23.233-.599 1.167-1.031 2.367-1.064h.033c1.233 0 3.133 2.959 3.7 3.857.1.166.033.365-.1.465a.36.36 0 0 1-.467-.1c-1.033-1.695-2.533-3.557-3.1-3.557-1 .033-1.6.399-1.733.598.067.865 2.1 8.712 3.467 13.832.033.166-.067.366-.234.399-.1 0-.133.033-.133.033Z" fill="#472938"/><path d="M72.108 269.233h-.1c-.166-.033-.3-.233-.233-.399.367-1.396-1.067-2.992-1.1-3.026-.133-.133-.1-.332.033-.465.134-.133.334-.1.467.033.067.067 1.7 1.895 1.233 3.624a.32.32 0 0 1-.3.233Zm2.2 11.205c-.1 0-.2-.033-.266-.133l-3.034-4.223.634-5.286a.39.39 0 0 1 .366-.3c.167.034.3.2.3.366l-.6 5.021 2.9 4.023c.1.133.067.366-.066.466-.1.066-.167.066-.234.066Z" fill="#472938"/><path d="m207.708 156.152 21.467 5.818s-2.6 34.613 1.833 41.762c4.434 7.148 1.967 23.407-3.4 31.487 0 0-8.6 27.597-6.266 34.08 2.333 6.484 10.166 20.815 10.166 20.815s-34.966 17.688-85.566 1.961c0 0 10.033-21.08 8.466-29.159-1.566-8.08-12.4-30.59-12.266-41.23.133-10.639 3.533-39.034-1.434-56.989l21.467-7.149s.367 42.16 24.8 42.16 20.733-43.556 20.733-43.556Z" fill="#AB8DA8"/><path d="M227.642 235.219s-2.667 5.32-19.6 7.547c0 0 16.3 1.231 14.666 11.006l4.934-18.553Zm-83.167-1.496s4 7.481 22.1 9.176c0 0-19.833-2.992-16.133 7.847l-5.967-17.023Z" fill="#543753"/><path d="M142.242 223.548c-.167 0-.334-.133-.334-.299-.033-.565-.066-1.064-.033-1.563.033-2.394.233-5.652.433-9.443.3-5.186.667-11.637.767-18.253 0-.2.133-.333.333-.333s.334.166.334.333c-.1 6.616-.467 13.1-.767 18.287-.233 3.79-.4 7.049-.433 9.443 0 .465 0 .964.033 1.496 0 .133-.133.299-.333.332Zm88.766-19.484a.397.397 0 0 1-.3-.166c-1.466-2.361-2.333-7.78-2.566-16.093 0-.199.133-.332.333-.332.167 0 .333.133.333.332.234 8.213 1.067 13.533 2.467 15.76.1.167.033.366-.1.466-.033 0-.1.033-.167.033Z" fill="#472938"/><path d="M147.108 289.615s18.834 7.148 40.867 6.384c22.033-.765 66.133-16.658 86.733-13.4 20.6 3.259 19.267 12.003 18.567 16.026-.7 4.024-43.467 64.371-81.033 64.371h-57.567s-70.733-44.454-73.033-57.288c-2.3-12.835-.634-20.515 19.1-20.881 19.733-.366 41.066 3.059 46.366 4.788Z" fill="#3B2645"/><path d="M187.242 309.199s28.133-11.671 51.633-15.694c0 0 15.133 23.408 10.7 43.191-.033 0-53.833-11.77-62.333-27.497Z" fill="#FFEDE5"/><path d="M187.242 309.199s68.066 8.877 62.3 27.497c-5.767 18.62-62.3-27.497-62.3-27.497Z" fill="#E0855C"/><path d="M217.842 342.88s-69.767 5.985-85.067 9.111c-15.3 3.125-30.8 1.729-40.267 5.02-9.466 3.292-14.7 5.819-15.833 5.952-1.133.133-3.733-14.53 1.033-19.717 0 0-1.466-5.286 5.2-9.376 6.667-4.09 17.734 1.297 21.834 0 4.1-1.297 7.033-2.494 11.4-1.563 4.366.931 15.033 3.558 15.033 3.558s54.933-34.812 86.667 7.015Z" fill="#FFEDE5"/><path d="m131.208 335.865 41.434 11.238 45.2-4.223s-20.6-21.146-49.034-19.184c-28.433 1.961-37.6 12.169-37.6 12.169Z" fill="#E0855C"/><path d="M145.642 294.07s21.4 4.323 52.333 20.482 56.533 9.543 65.567 12.668c9.033 3.125 26.166.698 28.966 3.125 2.8 2.428 4.634 6.684 2.967 8.512 0 0 7.467 17.09 6.767 18.221-.7 1.13-3.3 1.031-4.534.765-1.233-.266-12.1-5.653-24.6-7.88-12.5-2.228-46.966-7.016-74.433-8.413-27.467-1.396-67.467-4.156-67.467-4.156s.934-33.615 14.434-43.324Z" fill="#FFEDE5"/><path d="M293.208 339.556c-1.066 0-2.5-.2-4.333-.832-.167-.066-.267-.266-.2-.432.067-.166.267-.266.433-.2 4.134 1.464 6.134.466 6.167.466.167-.1.367-.033.433.133.1.166.034.366-.133.432-.033 0-.8.433-2.367.433Zm-212.133 4.721c-2.333 0-3.467-.732-3.533-.765-.167-.1-.2-.299-.1-.465.1-.167.3-.2.466-.1 0 0 1.2.731 3.534.632 2.433-.067 5.066-1.264 5.1-1.264.166-.066.366 0 .433.166.067.167 0 .366-.167.433-.1.066-2.8 1.23-5.333 1.33-.133.033-.267.033-.4.033Z" fill="#472938"/></svg>