<svg width="375" height="406" fill="none" xmlns="http://www.w3.org/2000/svg"><g clip-path="url(#a)"><path d="M238.936 322.019c7.42-5.113 16.307-7.851 29.008-5.682 13.858 2.34 27.039 8.29 41.066 8.9 23.249 1.03 44.502-15.65 54.38-36.056 21.615-45.09-7.902-102.292-36.62-137.527-29.251-35.824-68.739-64.998-110.279-84.297-29.669-13.865-60.335-26.043-91.537-35.501-18.885-5.74-74.391-25.814-86.144.944-3.539 8.06-1.276 17.934 1.432 26.092 3.945 12.427 6.872 22.278 5.697 35.62-2.041 22.548-8.709 42.895-.958 65.331 8.214 23.469 25.087 42.787 35.435 65.3 8.19 17.693 11.957 36.952 13.956 56.176 1.873 18.04-.09 35.041 9.598 50.96 11.156 18.294 31.692 30.735 52.249 34.486 17.59 3.149 37.025-.728 50.859-12.295 12.486-10.964 20.417-24.573 31.858-32.451Z" fill="#fff"/><path d="m193.267 91.549 4.866 38.662-45.266 2.37v-28.612l40.4-12.42Z" fill="#FFEDE5"/><path d="M152.867 122.832s28.3 14.056 36.3-30.014l-36.3 11.151v18.863Zm-7.049-37.909c3.261-.985 4.461-6.577 2.68-12.491-1.78-5.914-5.867-9.91-9.127-8.925-3.261.985-4.461 6.577-2.681 12.491 1.781 5.914 5.867 9.91 9.128 8.925Z" fill="#E0855C"/><path d="M140.767 57.495s.866 60.964 27.3 62.9c26.433 1.936 28.533-47.209 28.7-62.9.166-15.692-16.534-20.2-31.467-20.032-14.933.167-23.833 7.846-24.533 20.032Z" fill="#FFEDE5"/><path d="M195.633 71.116s-6.733-9.348-6.5-20.6c0 0-22.866 10.985-38.033 2.305 0 0-9.067 5.642-9.467 17.528l-3.1-6.477s-1.666-13.489-.733-16.66c.567-1.903 1.9-3.506 3.667-4.374 0 0-7.7-17.06 11.1-23.838 0 0 .066 4.107 7.566 3.539 7.5-.568 42.234-2.67 39.467 15.892-.033-.033 7.7 12.086-3.967 32.685Z" fill="#3B2645"/><path d="M203.474 72.761c1.635-5.956.299-11.517-2.985-12.422-3.284-.905-7.271 3.19-8.907 9.146-1.636 5.956-.299 11.518 2.984 12.422 3.284.905 7.272-3.19 8.908-9.146Z" fill="#FFEDE5"/><path d="M195.633 75.223c-.033 0-.1 0-.133-.033-.167-.067-.233-.267-.167-.434l2.934-6.077c.066-.167.266-.234.433-.167.167.067.233.267.167.434l-2.934 6.077c-.066.133-.166.2-.3.2Zm-28.6 16.393c-1.633 0-4.8-.868-5.533-2.204-.5-.935.5-6.176 2.433-14.957.334-1.57.634-2.804.734-3.405.4-2.204-.834-2.805-.9-2.805-.167-.067-.234-.267-.167-.434.067-.167.267-.234.433-.167.067.034 1.767.801 1.267 3.54-.1.6-.367 1.835-.733 3.438-.9 4.073-3 13.622-2.5 14.49.6 1.102 4.333 2.103 5.433 1.803 1.1-.3 3.267-1.903 3.3-1.903.133-.1.367-.067.467.066a.36.36 0 0 1-.067.468c-.1.067-2.3 1.67-3.5 2.003-.2.033-.4.067-.667.067Zm.667 9.815c-3 0-5.333-.734-5.367-.734a.335.335 0 0 1-.2-.434.334.334 0 0 1 .434-.2c.1.033 11.433 3.539 15.7-5.309.066-.167.266-.234.433-.167.167.067.233.267.167.434-2.567 5.242-7.4 6.41-11.167 6.41Zm12.367-32.218c1.066 0 1.933.868 1.933 1.937v1.435a1.936 1.936 0 0 1-1.933 1.937 1.937 1.937 0 0 1-1.934-1.937V71.15c0-1.069.834-1.937 1.934-1.937Zm-26.034 1.336c1.067-.1 2 .668 2.1 1.736l.134 1.436a1.918 1.918 0 0 1-1.734 2.103c-1.066.1-2-.668-2.1-1.736l-.133-1.436a1.918 1.918 0 0 1 1.733-2.103Zm32.667-7.512a8.815 8.815 0 0 0-7.6-.568c-4.167 1.67-5.4.535-5.667-.033-.266-.568 2.534-3.339 8.134-3.105 3.833.133 5.133 3.706 5.133 3.706Zm-40.8 3.072c2.067-1.703 4.8-2.338 7.4-1.803 4.4.968 5.4-.334 5.567-.935.166-.601-3.034-2.871-8.534-1.77-3.733.802-4.433 4.508-4.433 4.508Z" fill="#472938"/><path d="m250.667 149.809-21.834-8.147c-56.966 17.862-81.6 3.907-91.133-5.742 0 0-34.567 4.874-39.167 8.68-4.6 3.806 8.534 120.025 9.2 145.466.434 16.225-1.6 39.796-3.133 54.687 25.2 16.593 54.733 26.108 87.267 26.108 19.766 0 39.433-6.644 57.866-17.762-3.1-25.908-9.566-80.027-9.833-87.806-.333-10.25 10.767-115.484 10.767-115.484Z" fill="#AB8DA8"/><path d="M152.867 132.581 137.7 135.92c9.533 9.649 34.167 23.604 91.167 5.776l-30.734-11.485-45.266 2.37Z" fill="#FFEDE5"/><path d="M241.3 244.493s-14.767-71.08-24.267-99.459c-1.333-4.006-2.566-7.144-3.633-9.114l-12.767-4.774s1.834 6.877 4.234 16.593c4.466 17.928 10.933 45.472 11.733 57.091h-68.367v-71.247l-11.666 2.337s0 .1-.034.267c-.933 5.609-18.033 104.5-30.733 126.502 0 0 1.767 21.868 1.9 27.377.433 16.225-1.6 39.796-3.133 54.687 25.2 16.593 54.733 26.108 87.266 26.108 19.767 0 39.434-6.644 57.867-17.762-3.1-25.908-9.567-80.027-9.833-87.806-.034-2.437.533-10.283 1.433-20.8Z" fill="#3B2645"/><path d="m105.333 256.913 11.267-48.678-14.367 13.522 3.1 35.156Z" fill="#543753"/><path d="M182.467 312.401c-9.034 0-16.667-3.272-22.7-9.682-9.8-10.45-13.667-27.611-15.167-40.164-1.633-13.588-.967-24.84-.933-24.94l.033-.3h77.567l.033.3c0 .1.7 11.385-.933 24.94-1.5 12.553-5.367 29.714-15.167 40.164-6.067 6.41-13.7 9.682-22.733 9.682ZM144.3 237.949c-.1 1.903-.5 12.286.967 24.539 1.5 12.453 5.333 29.447 15 39.764 5.9 6.276 13.366 9.481 22.2 9.481 8.833 0 16.3-3.205 22.2-9.481 9.666-10.317 13.5-27.311 15-39.764 1.466-12.253 1.066-22.636.966-24.539H144.3Z" fill="#fff"/><path d="M98.5 144.6s-13.233 10.717-43.733 72.883L96.5 253.407l24-43.77s-10.333-66.873-22-65.037Z" fill="#AB8DA8"/><path d="M105 340.68s18.367 8.513 21.233 7.345c2.867-1.169-.666-25.341-1.566-25.608-.9-.267-16.867-12.52-20.067-11.752-2.233.534-4.3 7.712-4.3 7.712l-34.167-26.008 25.7-42.968-37.066-31.918S43.233 237.782 34 256.779c15.533 36.926 39.867 67.708 70.6 87.974l.4-4.073Z" fill="#FFEDE5"/><path d="m54.767 217.483 37.066 31.918-3.633 6.076-33.433-37.994Z" fill="#E0855C"/><path d="M250.667 149.809c5.933 2.07 46.433 53.986 46.433 53.986l-44.333 33.787s-16.434-22.636-18-33.787c-1.567-11.151 3.9-58.16 15.9-53.986Z" fill="#AB8DA8"/><path d="M297.133 203.828s43.3 61.231 45.134 74.552c1.833 13.321-3.634 27.878-39.9 27.644-36.267-.233-67.7-4.006-75.934-2.437-8.233 1.569-26.6 2.604-29.733 1.703-3.133-.902-13.967-26.91-13.433-30.449.533-3.539 6-5.609 6-5.609s-1.534-2.337-1.1-4.574c.433-2.237 19.433 2.404 23.6 2.872 4.166.467 13.266 10.783 15.6 11.318 2.333.534 59.2-8.18 59.2-8.18L254.8 236.046l42.333-32.218Z" fill="#FFEDE5"/><path d="M297.133 203.828 254.8 236.046l4.933 5.409 37.4-37.627Zm-10.566 66.84 21.533-3.773s-10.3-.534-12-21.234l-9.533 25.007Z" fill="#E0855C"/><path d="M296.067 237.615H193.566c-.633 10.684.334 19.665 1.9 26.943 5.967.902 13.834 2.671 16.334 2.972 4.166.467 13.266 10.817 15.6 11.318 2.333.5 59.167-8.18 59.167-8.18 11.2-5.108 9.5-33.053 9.5-33.053Z" fill="#E3DCF7"/><path d="M217.433 268.331c-6.666-3.272-21.966-3.739-21.966-3.739 5.966.901 13.833 2.671 16.333 2.971 4.167.467 13.267 10.817 15.6 11.318 1.033.234 12.3-1.302 24.767-3.071-18.934 1.936-28.1-4.241-34.734-7.479Z" fill="#3B2645"/><path d="M193.567 237.615s-8-7.311-6.534-10.183c1.467-2.871 7.734 2.538 7.734 2.538s-5.367-13.756-1.4-15.158c3.966-1.402 17.333 14.356 17.333 14.356s-3.033-14.556-1.233-15.157c1.8-.601 12.266 13.054 12.266 13.054s4.167-17.394 8.5-17.461c4.334-.067 1.234 19.898 1.234 19.898s4.7-15.324 8.266-14.289c3.567 1.035 3.9 17.428 3.9 17.428s.634-12.554 3.2-13.054c2.567-.501 5.934 18.028 5.934 18.028h-59.2Zm62.666 0s5.234-17.261 7.767-17.494c2.533-.234 2.7 14.256 2.7 14.256s5.133-16.994 6.7-17.428c1.567-.434 2.6 11.318 2.6 11.318s8.2-11.785 10.1-11.351c1.9.434-.6 11.351-.6 11.351s7.833-11.151 12.967-9.482c5.133 1.67-2.334 18.797-2.334 18.797l-39.9.033Z" fill="#679E97"/><path d="M296.067 237.615s11.566-10.784 8.533-13.154c-3.033-2.37-16.967 6.577-16.967 6.577s11.4-14.857 10.867-19.297c-.533-4.441-22.167 23.771-22.167 23.771s9.367-20.132 7.034-21.201c-2.334-1.068-11.967 21.668-11.967 21.668s2.867-12.586 0-12.52c-2.867.067-6.833 13.155-6.833 13.155s-3.967-13.889-6.667-14.423c-2.7-.534-2.333 7.912-2.333 7.912s-2.434-6.543-4.867-6.176.433 9.048.433 9.048-7.466-12.353-11.666-12.554c-4.2-.2-6.234 13.021-6.234 13.021s1.4-12.72-1.4-13.054c-2.8-.334-4.766 13.755-4.766 13.755s-1.4-20.032-6.967-20.566c-5.567-.534-1.233 15.324-1.233 15.324s-9.034-6.276-11.234-4.974c-2.2 1.302 3.134 13.688 3.134 13.688h85.3Z" fill="#85CCC6"/><path d="M243.4 222.591c-.033 0-.033 0 0 0-.2-.033-.333-.167-.333-.367l3.466-35.189c.034-.167.167-.334.367-.301.167.034.333.167.3.367l-3.467 35.19c-.033.167-.166.3-.333.3Z" fill="#472938"/></g><defs><clipPath id="a"><path fill="#fff" d="M0 0h375v406H0z"/></clipPath></defs></svg>