<svg width="278" height="304" fill="none" xmlns="http://www.w3.org/2000/svg"><path d="M132.427 292.77c72.993 0 132.453-26.523 144.184-100.514 11.731-73.991-89.717-39.534-87.831-106.617 1.886-67.055-20.467-106.034-81.674-74.573-61.206 31.46-51.944 97.711-60.985 128.45C28.54 199.164-68.389 292.77 132.427 292.77Z" fill="#fff"/><path d="M38.605 145.9c6.42-17.832 5.587-34.463-1.863-37.148-7.45-2.685-18.695 9.594-25.116 27.426-6.42 17.831-5.587 34.463 1.863 37.147 7.45 2.685 18.695-9.594 25.116-27.425Zm213.174-35.533c9.55-8.349 8.091-25.65-3.259-38.64-11.35-12.992-28.293-16.755-37.842-8.406-9.55 8.35-8.09 25.65 3.259 38.64 11.35 12.992 28.293 16.755 37.842 8.406Z" fill="#fff"/><path d="M177.326 44.218s-9.235-.055-10.982 12.901c-1.747 12.956.749 18.699-5.547 24.553-6.295 5.854 4.022 9.127 12.48 3.579 8.487-5.549 4.049-41.033 4.049-41.033Z" fill="#3B2645"/><path d="M177.326 44.218s-8.486 4.606-8.652 17.562c-.139 11.458 2.801 20.336-1.692 26.05 2.024-.388 4.215-1.22 6.295-2.58 8.487-5.548 4.049-41.032 4.049-41.032Z" fill="#3B2645"/><path d="m188.309 73.876-2.968 12.29-18.997-1.47s4.826-7.546 7.377-20.613l14.588 9.793Z" fill="#FFEDE5"/><path d="m177.049 69.659 9.54 11.402 1.72-7.185-11.26-4.217Z" fill="#DF845C"/><path d="M198.431 47.964s3.661 5.132 2.052 10.431c-1.608 5.3-1.525 6.215-1.802 8.185-.278 1.942-4.992 10.847-7.239 11.18-2.246.333-15.891-5.021-18.581-12.568-2.69-7.546 15.059-28.52 25.57-17.228Z" fill="#FFEDE5"/><path d="m172.944 67.69 3.717-5.91 1.691.666s1.415-.389 1.997-5.743c0 0 4.243-1.803 5.048-5.91 0 0 14.199-9.432 15.502 5.105 0 0 2.136-6.658-4.27-11.18-6.407-4.522-14.477-5.826-19.58-2.025-5.103 3.8-13.229 17.006-4.105 24.996Z" fill="#3B2645"/><path d="M176.933 65.59c1.575-.753 1.887-3.381.697-5.869s-3.431-3.894-5.006-3.14c-1.576.754-1.888 3.382-.698 5.87s3.431 3.894 5.007 3.14Z" fill="#FFEDE5"/><path d="M176.356 63.278a.252.252 0 0 1-.222-.11l-1.775-2.442a.3.3 0 0 1 .055-.389c.111-.083.306-.055.389.056l1.775 2.441a.299.299 0 0 1-.056.389.392.392 0 0 1-.166.055Zm11.842 5.577s2.246 1.553 5.824 1.692c0 0-3.883.804-5.824-1.692Zm5.851-1.277c-.61 0-1.192-.083-1.664-.333-.138-.083-.194-.25-.11-.36.083-.139.249-.194.36-.111 1.165.582 3.411.083 3.689-.25.027-.277-.389-1.526-.666-2.33-.25-.722-.472-1.388-.555-1.86-.305-1.303 1.026-2.912 1.082-2.995.111-.111.277-.14.388-.028.111.11.139.277.028.388-.333.416-1.165 1.665-.971 2.525.111.444.333 1.137.555 1.803.555 1.637.776 2.386.638 2.72-.083.193-.278.332-.666.498-.444.167-1.276.333-2.108.333Zm6.102-7.962s.804-.694.055-1.137c-.749-.444-2.052-.333-2.218.083-.167.416-.222.666.332.693.583.028 1.748-.277 1.831.361Zm-14.754-2.303s2.191-1.137 3.771-.665c1.581.471 1.942 1.137 2.718.943.777-.222.083-1.47-1.636-1.942-1.719-.472-4.105.25-4.853 1.664Zm2.939 3.912a.643.643 0 0 1-.527-.693l.084-.472a.64.64 0 0 1 .693-.527.64.64 0 0 1 .527.693l-.083.472c-.056.333-.361.583-.694.527Zm9.069 1.11c-.277-.028-.444-.278-.416-.555l.056-.388c.027-.278.277-.444.554-.417.278.028.444.278.416.555l-.055.389c-.028.277-.278.444-.555.416Z" fill="#472938"/><path d="M211.937 288.331c1.193.999 2.718 2.303 3.938.222-.138-1.332.028-5.493.028-5.493l-10.483.582.582 4.356c0-.028 4.743-.666 5.935.333Z" fill="#FFEDE5"/><path d="M215.071 300.011c1.692-.611 5.352-4.301 6.101-5.077-.249-1.221-.832-2.442-1.608-2.58-1.137-.167-3.55-2.497-3.689-3.829-1.248 2.108-2.745.805-3.938-.222-1.192-.999-5.935-.361-5.935-.361s-1.553 7.963-1.719 12.096c2.357.167 9.235.555 10.788-.027Z" fill="#3B2645"/><path d="M204.588 302.424c1.192 1.027 9.734.722 10.622.472.887-.25 5.214-4.522 5.851-5.549.278-.443.305-1.442.084-2.413-.749.777-4.41 4.466-6.102 5.077-1.553.555-8.458.194-10.788.055 0 1.249.056 2.136.333 2.358Z" fill="#E5E5E5"/><path d="M146.099 288.22c2.69.361 3.356 1.942 4.188 1.859.832-.084 2.745-1.748 2.745-1.748 0-1.221 1.22-5.271 1.22-5.271l-11.065.36-1.193 5.493c.028 0 1.443-1.054 4.105-.693Z" fill="#FFEDE5"/><path d="M153.642 296.543c1.082-.416 2.053-1.332 2.663-1.942-.028-.999-.305-2.136-1.082-2.58-1.331-.749-2.163-3.69-2.163-3.69s-1.914 1.637-2.746 1.748c-.832.111-1.525-1.471-4.187-1.859-2.69-.361-4.077.693-4.077.693-.998 2.886-1.414 7.352-1.525 9.932 1.359.278 3.577.611 6.656.611 5.574-.028 4.742-2.275 6.461-2.913Z" fill="#3B2645"/><path d="M140.497 300.76c.138.444.554 1.664 6.767 1.664 6.212 0 6.018-3.079 6.434-4.078.443-1.026 2.107-1.664 2.385-2.164.111-.222.222-.86.194-1.581-.583.61-1.581 1.526-2.662 1.942-1.72.638-.86 2.913-6.49 2.913-3.078 0-5.297-.333-6.656-.61-.028 1.054-.028 1.803.028 1.914Z" fill="#E5E5E5"/><path d="M204.782 139.294s7.571 17.312 9.596 30.99c2.024 13.677-2.302 50.742-1.664 53.904.638 3.163 4.187 12.873 4.714 25.913.5 13.039-1.525 32.931-1.525 32.931s-6.157 2.746-10.483.582c0 0-3.356-21.195-5.214-30.101-1.858-8.906-1.858-19.337-3.91-24.22-2.052-4.883-7.377-39.201-8.903-44.722 0 0-5.629 27.577-10.843 39.95-5.214 12.374-6.656 13.678-8.237 20.808-1.581 7.13-12.729 32.931-14.033 37.731 0 0-6.018 3.051-11.065.36 0 0 2.967-31.516 8.292-44 5.325-12.485 5.963-12.818 7.155-21.918 1.193-9.099-3.716-48.855 9.596-74.268-.028-.028 18.636-4.078 36.524-3.94Z" fill="#AB8DA8"/><path d="M187.393 140.238c1.221 5.326 17.334 29.574 17.334 29.574l-9.402-30.296-7.932.722Zm-7.044 37.425s2.441 5.771 14.588 4.966c0 0-6.656 1.471-6.046 9.322l-1.498-7.352-1.691 7.768s.443-7.713-8.237-10.376l5.685.167c.028-.028-2.773-2.026-2.801-4.495Z" fill="#543753"/><path d="M162.378 85.556s-4.104 3.412-16.168 21.945c-12.064 18.532-8.958 19.531-6.989 22.25 1.942 2.719 16.557 18.033 17.638 19.42 1.082 1.415 5.076 5.632 7.211 3.939 2.135-1.692 1.442-6.547 3.827-8.378 2.385-1.859 4.382-3.718 4.576-4.716.194-.999-.305-1.831-.527-1.831-.222 0-2.634 2.08-4.104 2.802-1.47.721-4.909 3.218-4.965 3.218-.055 0-13.117-19.698-13.117-19.698l14.532-17.339-1.914-21.612Z" fill="#FFEDE5"/><path d="M162.656 91.826s-5.381 6.575-3.938 22.222l5.629-6.686-1.691-15.536Zm-14.81 47.552 5.463-9.572-3.355-5.105-2.912 13.817.804.86Z" fill="#DF845C"/><path d="M182.124 82.282c3.55.86 12.896 6.076 18.775 17.007 5.88 10.93 3.8 12.873 1.553 16.007l-.859 14.039 3.771 11.735-37.106 2.164s2.884-12.096 1.386-15.925c-1.497-3.828-17.749-25.468-8.736-39.811 4.576-7.352 21.216-5.216 21.216-5.216Z" fill="#FFEDE5"/><path d="m201.593 129.307.86-14.038c2.246-3.107 4.354-5.077-1.553-16.008a41.05 41.05 0 0 0-4.798-7.02c-.305 4.273-1.193 9.378-3.273 14.677-4.687 12.013-23.49 11.292-28.509 10.875 2.412 4.606 4.742 8.129 5.269 9.461.277.693.416 1.664.444 2.774 14.227 1.36 31.56-.721 31.56-.721Z" fill="#AB8DA8"/><path d="M182.429 82.366a4.668 4.668 0 0 1-.305-.084s-.249-.027-.665-.083c-6.074 1.665-10.816 5.438-13.978 11.153-1.054-3.718-1.636-7.186-1.275-9.821-.056.027-.111.055-.167.055l-.416.167a11.07 11.07 0 0 0-1.414.665c-3.106 3.357-4.188 9.627-3.217 18.727.443 4.078 1.22 7.99 1.913 10.986v.833c.139.277.25.527.389.804.055.139.138.278.194.416.332.666.665 1.304.998 1.942-.25-.915-.638-2.33-1.026-4.05 0-3.246.277-7.879 1.498-12.623a33.84 33.84 0 0 1 2.385-6.63c3.272 10.625 9.984 22.554 10.399 23.276l.805 1.415-.278-1.609c-.027-.167-2.939-16.563-.915-26.218 1.276-6.075 3.217-8.24 4.438-9.016.332-.084.637-.167.97-.222l-.333-.083Zm-18.026 18.976c-.971 3.745-1.331 7.435-1.442 10.431-1.858-8.85-3.578-22.943 2.662-27.854-.277 2.802.388 6.381 1.498 10.182-1.137 2.164-2.025 4.578-2.718 7.241Zm12.369-9.738c-1.664 7.962-.028 20.419.665 24.83-1.941-3.634-7.099-13.566-9.734-22.333 2.884-5.521 7.128-9.183 12.702-11.014-1.22 1.276-2.635 3.745-3.633 8.517Z" fill="#AB8DA8"/><path d="M183.65 128.447h-13.784c-.166 0-.277-.111-.277-.278 0-.166.111-.277.277-.277h13.784c.166 0 .277.111.277.277a.278.278 0 0 1-.277.278Z" fill="#472938"/><path d="m187.893 142.069 7.931-.472-4.076-11.458c-1.942.111-4.049.222-6.296.278.749 4.466 1.553 8.6 2.441 11.652Zm-5.686-38.785s.472 5.382 1.248 12.345c.916-.36 1.831-.776 2.691-1.276l-3.939-11.069Z" fill="#DF845C"/><path d="M183.483 115.63c.527 4.605 1.193 9.876 1.997 14.814 2.219-.055 4.354-.166 6.295-.277l-5.602-15.786a26.09 26.09 0 0 1-2.69 1.249Z" fill="#543753"/><path d="m170.088 143.095.777-.055s1.248-1.082 1.497-2.497c-.333.666-1.192 1.581-2.274 2.552Z" fill="#DF845C"/><path d="M182.734 82.449s11.676 2.358 13.34 7.99c1.692 5.632 2.94 38.868 2.94 38.868s11.675 33.153 12.923 38.202c1.248 5.05 3.855 13.178 4.022 14.815.166 1.637-1.442 5.41-1.997 6.02-.555.611-3.883 1.859-4.632 2.026-.748.166-5.269-2.802-5.047-3.413.222-.61 2.025-1.692 2.025-1.692l.332-2.247s-3.244-6.326-3.023-9.544c.222-3.19-.277-5.271-1.359-7.213-1.081-1.942-14.088-31.017-15.419-36.094-1.331-5.077-5.186-27.743-5.103-32.016.083-4.272.998-15.702.998-15.702ZM109.852 42.61l2.329 12.872a4.99 4.99 0 0 0 3.079 3.746l5.158 2.025s-5.435 8.129-16.335 10.431c-10.899 2.275-16.861-7.601-16.861-7.601l4.603-3.44a3.779 3.779 0 0 0 1.498-3.274l-.832-11.957 17.361-2.803Z" fill="#FFEDE5"/><path d="M93.129 54.373s13.062 7.712 16.723-11.764l-17.333 2.775.61 8.989Z" fill="#DF845C"/><path d="M113.606 38.522c.492-2.088-.076-4.008-1.268-4.29-1.193-.281-2.559 1.183-3.051 3.27-.493 2.089.075 4.01 1.268 4.29 1.192.282 2.558-1.182 3.051-3.27Z" fill="#FFEDE5"/><path d="M90.719 44.193c1.06-.613 1.052-2.616-.02-4.474-1.072-1.857-2.802-2.866-3.863-2.253-1.061.612-1.052 2.615.02 4.473 1.072 1.858 2.802 2.867 3.863 2.254Z" fill="#DF845C"/><path d="M110.739 39.17c-.055 0-.083 0-.138-.028-.139-.084-.194-.25-.111-.361l.97-1.886c.084-.14.25-.195.361-.112.139.084.194.25.111.361l-.971 1.887c-.027.083-.111.138-.222.138Zm-20.883 2.607a.3.3 0 0 1-.194-.083l-1.886-1.748a.297.297 0 0 1-.027-.388.297.297 0 0 1 .388-.028l1.886 1.748a.3.3 0 0 1 .028.388.24.24 0 0 1-.195.111Z" fill="#472938"/><path d="M85.752 29.737S90.3 46.66 92.019 49.1c1.692 2.414 6.934 4.661 7.821 4.8.888.139 4.41-.222 5.214-.916.804-.693 5.131-5.27 5.796-8.24.638-2.968.804-18.643-1.941-21.5-2.773-2.858-24.544-.527-23.157 6.492Z" fill="#FFEDE5"/><path d="M100.007 41.777c-.694 0-1.914-.36-2.08-.444-.222-.11-.25-.11-.167-4.993v-.666c-.028-.222-.693-1.36-1.276-2.303-.083-.139-.055-.305.084-.388.138-.084.305-.056.388.083.5.804 1.387 2.191 1.387 2.58v.666c-.028.998-.056 3.856-.028 4.522.333.11 1.276.36 1.747.333.388-.028.998-.5 1.276-.777a.268.268 0 0 1 .388 0 .268.268 0 0 1 0 .388c-.083.084-.943.916-1.636.944-.028.055-.056.055-.083.055Z" fill="#472938"/><path d="m96.568 44.718 7.709-1.054s-.582 3.55-3.327 4.161c-2.746.61-4.382-3.107-4.382-3.107Z" fill="#fff"/><path d="M104.222 34.842a.846.846 0 0 1-.943-.75l-.055-.638a.845.845 0 0 1 .748-.943.845.845 0 0 1 .943.75l.056.637c.083.472-.278.888-.749.944Zm-10.788 1.941a.854.854 0 0 1-.999-.693l-.11-.638a.855.855 0 0 1 .693-1 .854.854 0 0 1 .998.695l.111.638a.855.855 0 0 1-.693.998Zm7.904-5.853s3.993-1.415 6.129-.167c0 0-.361-1.748-2.552-1.664-2.191.083-3.605.388-3.827.915-.222.527.25.916.25.916Zm-5.935 1.082s-4.216-.389-5.963 1.36c0 0-.083-1.804 2.053-2.248 2.135-.444 3.577-.5 3.91-.056.36.472 0 .944 0 .944Z" fill="#472938"/><path d="m88.442 39.142-.804-6.992s6.628.694 11.62-4.355c4.992-5.05 8.458-2.22 8.458-2.22l3.467 9.46.832-.86s.194-8.822 0-9.127c-.194-.305-1.664-1.22-1.664-1.22s-.471-8.601-11.149-10.293c-10.677-1.693-13.506 9.488-16.612 9.931l1.248 1.582s-.416 1.276-.388 2.858c.028 1.58 3.411 9.57 3.411 9.57l1.58 1.666Z" fill="#3B2645"/><path d="M73.632 68.688s-6.295 1.803-6.018 14.926c0 0-6.24 9.377-6.933 20.585 0 0-15.253-14.01-15.78-15.73-.555-1.748-.25-7.88-.61-9.377-.36-1.498-1.692-3.08-1.525-5.188.166-2.109.526-5.077.332-5.383-.194-.305-3.106.028-3.605 2.442-.5 2.413-.638 5.16-.638 5.16s-4.687 1.165-5.269 2.025c-.582.86-.25 3.135-.25 3.135s.111 7.657.888 8.517c.776.86 4.493 2.747 5.27 3.274.776.527 9.54 20.697 13.339 25.274 3.8 4.578 7.321 5.854 10.622 4.772 3.3-1.082 12.424-13.4 15.364-19.115 2.94-5.715 1.858-34.651-5.187-35.317Z" fill="#FFEDE5"/><path d="M80.205 87.748c-3.355-.833-5.546-.333-5.546-.333s4.465 16.146-2.44 26.633c2.717-3.606 5.268-7.491 6.572-10.015 1.248-2.469 1.775-9.294 1.414-16.285Zm-19.552 16.451 2.607 1.915-2.496-3.108-.11 1.193ZM35.527 78.01s4.743.36 4.992.638c.25.277.638 10.07-.25 10.736-.915.694-5.463.583-5.463.583s5.436.5 6.018.25c.583-.25 1.637-3.69 1.83-5.466.195-1.775-.915-6.464-1.33-6.575-.417-.11-5.797-.166-5.797-.166Z" fill="#DF845C"/><path d="M133.896 274.543c.195-6.104.832-15.065.722-23.36-.167-11.93-1.359-25.357-1.942-29.269-.61-3.912.804-22.028.804-22.028l-25.07 3.495c.61 1.942 5.158 18.977 5.352 26.412.222 7.435 9.346 42.058 9.707 44.833.055.36.083.749.138 1.137 2.302.278 6.712.5 10.289-1.22Z" fill="#FFEDE5"/><path d="M126.131 283.393s-.277-2.969 3.051-3.69c3.328-.722 4.853.943 4.853.943-.194-1.304-.194-3.44-.111-6.104-3.577 1.721-7.987 1.499-10.261 1.221.222 2.164.277 4.744.055 6.853.361.943 2.413.777 2.413.777Z" fill="#fff"/><path d="M122.637 296.043c3.55 1.859 2.524 6.021 6.961 7.047 3.688.86 9.29.361 11.481.111.583-.055 1.054-.527 1.165-1.109a8.67 8.67 0 0 0 .083-1.554c-2.773.25-9.29.749-11.897.111-3.328-.805-4.132-4.217-5.796-5.16a8.247 8.247 0 0 1-2.385-2.026c-.056.583-.139 1.082-.167 1.443a.992.992 0 0 0 .555 1.137Z" fill="#3B2645"/><path d="M141.079 296.82c-.665-.943-1.636-2.968-2.634-5.271-.583 2.081-7.239 1.11-8.098.888-.86-.222-4.188-9.044-4.188-9.044s-2.052.138-2.441-.805c-.055.472-.111.943-.194 1.359-.333 1.776-.943 6.631-1.275 9.516a8.727 8.727 0 0 0 2.385 2.026c1.691.943 2.468 4.355 5.796 5.16 2.607.638 9.124.139 11.897-.111-.083-1.11-.36-2.442-1.248-3.718Z" fill="#AB8DA8"/><path d="M130.319 292.437c.86.222 7.516 1.193 8.098-.888-2.108-4.827-4.41-10.903-4.41-10.903s-1.525-1.665-4.853-.943c-3.328.721-3.051 3.689-3.051 3.689s3.356 8.851 4.216 9.045Z" fill="#3B2645"/><path d="M124.838 222.784c2.633-.41 4.686-1.269 4.585-1.92-.101-.651-2.318-.847-4.952-.438-2.633.41-4.686 1.27-4.584 1.921.101.651 2.317.847 4.951.437Z" fill="#E0855C"/><path d="M62.844 275.014c.028-6.131.361-15.037.75-23.332.693-14.732 3.91-27.688 3.91-29.269 0-6.27.72-25.718 1.109-25.246l23.213 5.631c-.666 1.915-7.017 18.006-7.488 25.441-.472 7.435-10.622 44.472-11.094 47.219-.055.361-.11.721-.166 1.137-2.302.167-6.712.25-10.234-1.581Z" fill="#FFEDE5"/><path d="M70.305 284.114s.388-2.969-2.912-3.801c-3.3-.832-4.881.777-4.881.777.25-1.304.332-3.44.332-6.104 3.523 1.831 7.932 1.748 10.234 1.554-.277 2.136-.444 4.716-.277 6.853-.472.943-2.496.721-2.496.721Z" fill="#fff"/><path d="M73.355 296.876c-3.633 1.748-2.718 5.937-7.183 6.797-3.716.721-9.29.055-11.481-.278a1.297 1.297 0 0 1-1.11-1.165 7.041 7.041 0 0 1-.027-1.553c2.773.333 9.263 1.054 11.897.527 3.356-.694 4.271-4.079 5.963-4.966a8.587 8.587 0 0 0 2.468-1.942c.056.582.083 1.082.111 1.47.056.472-.222.916-.638 1.11Z" fill="#3B2645"/><path d="M54.913 297.042c.693-.915 1.747-2.913 2.829-5.188.527 2.109 7.182 1.36 8.07 1.165.887-.194 4.493-8.905 4.493-8.905s2.024.222 2.468-.722c.028.472.083.944.139 1.36.277 1.803.72 6.658.97 9.544a8.59 8.59 0 0 1-2.468 1.942c-1.72.887-2.607 4.244-5.963 4.966-2.607.554-9.124-.167-11.897-.528a6.96 6.96 0 0 1 1.359-3.634Z" fill="#AB8DA8"/><path d="M65.784 293.019c-.887.195-7.543.944-8.07-1.165 2.274-4.772 4.77-10.764 4.77-10.764s1.58-1.609 4.88-.777c3.301.832 2.913 3.801 2.913 3.801s-3.606 8.711-4.493 8.905Z" fill="#3B2645"/><path d="M78.576 224.782c.123-.647-1.9-1.575-4.518-2.073-2.619-.498-4.84-.376-4.964.271-.123.647 1.9 1.575 4.518 2.073 2.619.498 4.84.377 4.964-.271Z" fill="#E0855C"/><path d="M130.43 147.007s4.659 29.519 3.05 52.879c0 0-9.013 6.741-30.062 2.718l-3.245-18.56-5.325 18.671s-21.826 1.304-27.677-7.157c0 0 3.133-35.012 9.762-49.161 6.628-14.149 51.334-10.987 53.497.61Z" fill="#3B2645"/><path d="M100.173 184.044s-2.607-2.303-2.884-2.524c-.278-.222-2.69-9.766-2.69-9.766l2.662 22.5 2.912-10.21Z" fill="#3B2645"/><path d="M112.098 200.385c-4.687 0-8.07-.361-8.153-.361-.083 0-.139-.083-.111-.166 0-.083.083-.139.166-.111.194.028 18.803 1.997 29.647-3.468.055-.028.139 0 .194.055.028.056 0 .139-.055.195-6.351 3.19-15.254 3.856-21.688 3.856Zm-16.39-.555s-.028 0 0 0c-20.19-1.692-28.204-7.324-28.288-7.38-.055-.055-.083-.138-.027-.194.055-.055.138-.083.194-.028.083.056 8.042 5.632 28.149 7.325.083 0 .138.083.138.138-.055.084-.11.139-.166.139Z" fill="#fff"/><path d="M116.896 59.866s-4.271 8.572-14.061 9.21c-9.79.638-13.589-6.464-13.589-6.464l-15.614 6.104s2.83 10.043 1.027 18.726c0 0 4.132 14.76 4.132 16.618 0 1.859 3.466 9.738 3.688 11.597.222 1.859-5.546 30.767-5.546 30.767s27.566 8.101 33.973 7.824c6.406-.278 19.524-7.241 19.524-7.241s-1.304-24.22 0-30.185c1.303-5.964 6.184-21.917 6.184-21.917s-4.132-20.89-2.967-29.213l-16.751-5.826Z" fill="#AB8DA8"/><path d="M133.453 94.572a.27.27 0 0 1-.278-.222c-2.44-9.987-2.912-29.546-2.912-29.74 0-.167.111-.278.278-.278.166 0 .277.111.277.278 0 .194.471 19.697 2.912 29.63.028.138-.055.305-.194.332h-.083Zm-57.879-3.579a.513.513 0 0 1-.194-.055c-.111-.11-.14-.277-.028-.388 4.88-5.521.388-22.528.333-22.694-.028-.139.055-.305.194-.333.138-.028.305.055.333.194.194.721 4.603 17.45-.472 23.193-.028.056-.11.084-.166.084ZM101.338 72.1c-9.707 0-14.726-8.323-14.782-8.434-.083-.138-.028-.305.111-.388.139-.083.305-.028.388.11.056.084 5.297 8.795 15.42 8.102 8.209-.555 12.646-5.826 14.116-7.574.499-.61.638-.749.86-.694a.301.301 0 0 1 .222.222.247.247 0 0 1-.195.333h-.055c-.083.084-.25.305-.416.5-1.498 1.775-6.046 7.185-14.504 7.768-.389.055-.777.055-1.165.055Z" fill="#472938"/><path d="M133.647 65.692s10.095-.555 12.23 15.37c0 0 10.372 19.697 11.565 25.995 1.192 6.297-.943 15.175-3.55 19.725-2.607 4.55-11.287 19.254-12.868 21.501-1.581 2.247-1.331 2.83-5.464 3.135 0 0-3.05.555-3.66.832-.611.278-4.299 2.248-5.048 1.97-.749-.25-1.47-1.248-1.331-1.442.166-.222 4.021-2.303 4.021-2.303s-6.212 1.054-6.794 1.026c-.583-.027-1.442-1.331-1.442-1.331s-2.025-.916-2.275-1.637c-.249-.722 1.969-2.164 1.969-2.164s-1.331-.333-1.802-1.027c-.472-.693 7.765-5.104 8.763-5.049.999.056 7.766.916 7.766.916s8.985-28.909 9.068-30.712c.084-1.803-7.127-9.322-8.236-15.592.055 0-4.576-21.806-2.912-29.213Z" fill="#FFEDE5"/><path d="M120.917 150.253c-.111 0-.194-.056-.249-.167-.056-.138 0-.305.138-.36l6.268-2.858c.139-.055.305 0 .361.139.055.139 0 .305-.139.361l-6.268 2.857c-.028.028-.055.028-.111.028Zm.139-3.579a.291.291 0 0 1-.25-.139c-.083-.138-.027-.305.111-.388l6.129-3.274c.139-.083.305-.027.389.111.083.139.027.305-.111.389l-6.129 3.273c-.056 0-.111.028-.139.028Z" fill="#472938"/></svg>