<svg width="376" height="406" fill="none" xmlns="http://www.w3.org/2000/svg"><g clip-path="url(#a)"><path d="M251.974 6.165c-66.889-22.553-110.635 36.35-114.339 94.371-1.887 29.132 2.95 59.514 6.159 89.4 2.884 27.118 7.932 62.716-9.761 81.947-7.86 8.444-20.011 6.563-30.232 10.493-29.264 11.23-24.58 55.275-5.864 82.353 5.864 65.654 102.628 49.767 147.095 31.858 104.498-42.102 169.736-186.998 95.677-310.832-19.835-33.448-52.333-67.409-88.735-79.59Z" fill="#fff"/><path d="M146.182 321.785c-20.2 50.817-14.433 85.15-14.433 85.15a273.475 273.475 0 0 0 58.1 4.305c24.667-.801 47.467-8.475 68.133-20.12.7-28.228-8.933-53.419-15.8-67.733-44.166 21.388-82.7 5.405-96-1.602Z" fill="#AB8DA8"/><path d="M152.116 308.105c-2.167 4.672-4.167 9.243-5.9 13.68 13.266 7.007 51.833 23.023 95.966 1.602-3.766-7.841-6.733-12.412-6.733-12.412s-56.167-61.127-83.333-2.87Z" fill="#FEF9EF"/><path d="M195.982 410.872v-17.583l15.267-10.611-10.1 14.114 1.033 13.58-6.2.5Z" fill="#543753"/><path d="M123.416 197.998s-1.534.567-1.8 16.115c-.267 15.549-1.434 46.479-1.434 46.479s-14.1-13.113-15.133-19.719c-1.033-6.607-.6-12.546-1.3-16.183-.7-3.636-.833-13.579-.533-15.448.3-1.868-4.434-2.169-5.734.601-1.3 2.769-1.733 11.978-2.4 12.312-.666.333-8.3 1.034-9.033 2.702-.734 1.669.566 4.705-.567 7.241-1.133 2.536.1 4.337 0 6.272-.1 1.936-.567 2.67.3 5.606s1.034 5.405 2.434 5.872l1.4.468 4.9 1.668s21 47.346 31.4 48.38c10.4 1.035 15.833-7.24 17.133-13.913 1.3-6.673 8.267-46.646 8.267-46.646l-27.9-41.807Z" fill="#FFEDE5"/><path d="m135.216 230.896 11.533 35.068 4.567-26.192-16.1-8.876Zm-15.034 29.663s9.8 8.241 13.033 15.015c0 0-5.233-13.881-12.833-20.32l-.2 5.305Zm-28.933-10.911s10.233-.267 11.066-.901c.834-.634.867-3.637.434-4.004 0 0 .833-4.371.066-5.505 0 0 .3-3.237-.033-5.138 0 0 1.7 9.742 1.5 11.277-.2 1.535.6 4.138-4 4.905-4.6.768-9.033-.634-9.033-.634Z" fill="#E0855C"/><path d="M102.816 239.305h-.067c-.167-.034-.3-.201-.267-.367.434-2.703-.266-7.941-.266-7.975v-.133c.3-1.168.933-4.471.066-5.472-.766-.901-8.166-1.135-12.666-1.068a.334.334 0 0 1-.334-.334c0-.2.134-.333.334-.333 2-.034 11.966-.1 13.166 1.301 1.2 1.401.267 5.305.1 6.006.067.634.667 5.438.234 8.108 0 .167-.167.267-.3.267Z" fill="#472938"/><path d="M102.549 231.23s-.033 0 0 0l-10.734-.5a.334.334 0 0 1-.333-.334c0-.2.133-.334.334-.334l10.733.501a.334.334 0 0 1 0 .667Zm.167 13.847H92.149c-.2 0-.333-.133-.333-.334 0-.2.133-.333.333-.333h10.567c.2 0 .333.133.333.333 0 .201-.133.334-.333.334Zm.199-7.274H90.782c-.2 0-.333-.133-.333-.333 0-.201.133-.334.333-.334h12.133c.2 0 .334.133.334.334 0 .2-.134.333-.334.333Z" fill="#472938"/><path d="m283.849 181.748 20.2-.767c.866-.033 1.6.634 1.633 1.501l1.567 41.708a1.569 1.569 0 0 1-1.5 1.635l-20.2.767a1.566 1.566 0 0 1-1.633-1.501l-1.567-41.708c-.033-.901.633-1.601 1.5-1.635Z" fill="#3B2645"/><path d="M285.482 225.224a.228.228 0 0 1-.233-.233l-1.567-41.708c0-.067.034-.133.067-.167a.255.255 0 0 1 .167-.066l20.2-.768c.133 0 .233.1.233.234l1.567 41.707c0 .134-.1.234-.234.234l-20.2.767Z" fill="#FEF9EF"/><path d="M221.216 176.577s21.2 2.135 25.133 19.352 11.2 58.123 11.2 58.123 15.467-24.79 16.7-28.728c1.233-3.937 5.233-17.25 5.1-21.788-.133-4.537 4.3-1.301 4.3 4.104l.667 17.885c.033.6.533 1.067 1.133 1.034h.033l20.467-1.535c.7-.033 1.2-.634 1.167-1.335v-.233s-1.467-3.036-1.034-4.438c.434-1.401 3.934-1.535 4.334-1.201.4.334 2.566 4.504 2.5 5.639-.067 1.134-2.6 4.671-4.267 5.205-1.667.534-18.267 4.538-21.667 9.676-3.4 5.138-18.266 50.149-30.333 53.619-12.067 3.47-23.833-29.262-26.6-38.838-2.767-9.576-8.833-76.541-8.833-76.541Z" fill="#FFEDE5"/><path d="M226.549 229.662c1.3 11.044 2.6 20.32 3.5 23.423 1.3 4.471 4.566 14.047 8.933 22.589l1.333-62.895-13.766 16.883Z" fill="#E0855C"/><path d="M306.549 205.939s7.233 3.703 7.1 5.271c-.133 1.569-1.5 4.371-2.9 4.238-1.4-.134-4.033-1.535-4.767-3.17-.733-1.635-1.1-6.873.567-6.339Z" fill="#FFEDE5"/><path d="M306.915 211.377s7.234 3.704 7.1 5.272c-.133 1.568-1.5 4.371-2.9 4.238-1.4-.134-4.033-1.535-4.766-3.17-.734-1.635-1.1-6.873.566-6.34Zm0-12.045s7.234 3.704 7.1 5.272c-.133 1.568-1.5 4.371-2.9 4.238-1.4-.134-4.033-1.535-4.766-3.17-.734-1.635-1.1-6.907.566-6.34Z" fill="#FFEDE5"/><path d="M251.015 267.299c-.066 0-.1 0-.166-.034-.167-.066-.234-.3-.134-.433l6.534-12.913c.066-.167.3-.234.433-.133.167.066.233.3.133.433l-6.533 12.913c-.033.1-.133.167-.267.167Z" fill="#472938"/><path d="M157.382 285.617c.033 10.844-5.267 22.455-5.267 22.455s36.7 20.62 83.3 2.869c0 0-5.7-14.681-4.966-30.029-37.667-7.007-73.067 4.705-73.067 4.705Zm-33.966-87.619c-2.734 4.104 7.8 24.524 17.866 45.177 9.167-20.52 3.8-45.444.7-56.155-7.1 2.736-15.8 6.773-18.566 10.978Z" fill="#FFEDE5"/><path d="M230.449 280.945a46.75 46.75 0 0 1 .467-4.804c.133-.968.3-2.002.466-3.103-29.9-8.175-65.5 1.167-75.533 4.137.967 3.303 1.533 6.173 1.533 8.442 0 0 35.4-11.712 73.067-4.672Z" fill="#FEF9EF"/><path d="M141.282 244.276c-.133 0-.233-.067-.3-.2l-7.433-16.016c-.067-.167 0-.367.167-.433.166-.067.366 0 .433.166l7.433 16.016c.067.167 0 .367-.166.434-.034.033-.1.033-.134.033Z" fill="#472938"/><path d="M198.282 314.979a.935.935 0 1 0-.001-1.87.935.935 0 0 0 .001 1.87Z" fill="#E0855C"/><path d="M238.715 214.747v-1.001c0-.267 0-.5-.033-.767v-.234c0-.333-.033-.634-.033-.934v-.2c0-.234-.034-.501-.034-.734 0-.1 0-.2-.033-.3 0-.201-.033-.401-.033-.568l-.034-.333c0-.167-.033-.367-.066-.534 0-.1-.034-.2-.034-.334-.033-.2-.033-.367-.066-.567 0-.1-.034-.167-.034-.267a6.558 6.558 0 0 0-.133-.801c-2.6-15.815-17-30.63-17-30.63s5.6 22.255 7.4 24.858c6.567 9.543 10.233 15.281 9.767 22.889.033-.4.066-.767.1-1.168v-.3c.033-.3.033-.601.066-.868 0-.1 0-.233.034-.333 0-.267.033-.534.033-.834l.033-.334c0-.3.034-.567.034-.834v-.267a49.05 49.05 0 0 0 .066-2.202v-2.403Z" fill="#FFEDE5"/><path d="M228.582 201.434c-1.8-2.602-7.366-24.857-7.366-24.857h-4.234l-64.866 6.94s-4.567 1.334-10.134 3.47c3.067 10.71 8.467 35.668-.7 56.155 6.034 12.412 11.867 24.891 14.534 34.033 10.033-3.003 45.633-12.312 75.533-4.137 1.967-12.613 5.767-32.699 7-48.715.467-7.607-3.2-13.346-9.767-22.889Z" fill="#AB8DA8"/><path d="M162.982 259.558c-1.6 0-3.266-.201-5.033-.634-.167-.034-.3-.234-.233-.401.033-.167.233-.3.4-.233 6.333 1.601 11.466-.234 16.866-2.136 5.134-1.835 10.434-3.703 17.234-2.936 13.733 1.535 36.1-2.169 36.333-2.202.2-.033.367.1.4.267.033.167-.1.367-.267.4-.233.034-22.7 3.771-36.5 2.236-6.633-.734-11.866 1.101-16.933 2.903-4.067 1.368-7.933 2.736-12.267 2.736Z" fill="#472938"/><path d="M214.249 87.623s17.4 1.735 12.167 24.891c-5.234 23.156-.067 22.122 4.466 34.367 4.534 12.245-19.166 4.137-19.166 4.137s12.066 18.085-52.067 10.277c-52.9-6.44-17.6-34.033-17.6-34.033s-15.9 2.102 3.133-14.715c13.4-11.845 20.534-55.387 69.067-24.924Z" fill="#3B2645"/><path d="M202.716 151.686s-5.367 18.851 2 22.355c5.666 2.703 12.266 2.536 12.266 2.536s-2.266 49.982-30.266 50.516c-28 .534-34.6-43.576-34.6-43.576s11.4-4.004 14.8-11.845c3.4-7.841 3.566-18.819 3.566-18.819l32.234-1.167Z" fill="#FFEDE5"/><path d="M216.167 137.433c2.854-4.947 2.789-10.331-.145-12.027-2.933-1.695-7.624.941-10.478 5.888-2.853 4.947-2.789 10.332.145 12.027 2.933 1.695 7.625-.941 10.478-5.888Z" fill="#E0855C"/><path d="M209.182 137.805a.301.301 0 0 1-.233-.1.323.323 0 0 1 0-.467l5.033-4.738a.323.323 0 0 1 .467 0 .323.323 0 0 1 0 .467l-5.033 4.738c-.067.1-.134.1-.234.1Z" fill="#472938"/><path d="M163.72 139.561c3.296-.78 4.904-5.919 3.59-11.478s-5.051-9.433-8.347-8.652c-3.297.78-4.904 5.919-3.59 11.478s5.051 9.433 8.347 8.652Z" fill="#FFEDE5"/><path d="M201.049 167.768c-1-6.74 1.667-16.116 1.667-16.116l-32.267 1.201s-.033 2.436-.433 5.839c0 .034 16.1 19.553 31.033 9.076Z" fill="#E0855C"/><path d="M162.849 132.734c-.1 0-.2-.067-.267-.167l-3.2-4.905c-.1-.167-.066-.367.1-.467.167-.1.367-.067.467.1l3.2 4.905c.1.167.067.367-.1.467-.067.067-.133.067-.2.067Z" fill="#472938"/><path d="M164.982 97.533s-11.466 61.96 15.467 68.4c26.933 6.44 36.533-51.35 35.833-63.362-.7-12.012-47.3-15.649-51.3-5.038Z" fill="#FFEDE5"/><path d="M200.816 125.86c.867.167 1.433 1.001 1.3 1.869l-.167.968c-.166.867-1 1.434-1.866 1.301a1.643 1.643 0 0 1-1.3-1.869l.166-.967c.167-.868 1-1.468 1.867-1.302Zm-25.1-2.802c.9 0 1.6.7 1.6 1.601v.968a1.601 1.601 0 1 1-3.2 0v-.968c0-.901.7-1.601 1.6-1.601Zm30.966 1.134s-1.2-1.802-4.666-2.402c-3.467-.601-4.567-.401-4.6-1.502-.034-1.101 7.733-2.802 9.266 3.904Zm-36-4.571s1.734-1.301 5.2-.734c3.467.6 4.434 1.134 4.834.1.4-1.034-6.367-5.205-10.034.634Z" fill="#472938"/><path d="m177.282 143.244 14.4 1.635s-2.233 9.743-8.6 8.608c-6.333-1.101-5.8-10.243-5.8-10.243Z" fill="#fff"/><path d="M186.816 140.842c-1 0-2.1-.267-3.1-.734-.167-.067-.234-.267-.167-.434.067-.167.267-.234.433-.167 1.467.701 3.1.868 4.2.434.467-.167.767-.434.9-.734.434-1.035.267-4.238.067-7.941l-.067-1.302c-.366-6.84 3.734-8.141 3.9-8.208a.296.296 0 0 1 .4.234.295.295 0 0 1-.233.4c-.167.034-3.767 1.235-3.433 7.541l.066 1.301c.2 3.937.4 7.074-.133 8.242-.2.467-.633.867-1.267 1.101-.4.2-.966.267-1.566.267Z" fill="#472938"/><path d="M211.716 132s2.166-16.717-5.034-25.859c0 0-6.1 11.545-16.1 7.541 0 0-13.733 11.911-27.733 8.441-14-3.47-9.033-36.235 11.267-37.636 20.3-1.402 61.6 6.773 37.6 47.513Z" fill="#3B2645"/></g><defs><clipPath id="a"><path fill="#fff" transform="translate(.814)" d="M0 0h375v406H0z"/></clipPath></defs></svg>